<svg xmlns="http://www.w3.org/2000/svg" xmlns:xlink="http://www.w3.org/1999/xlink" viewBox="0 0 257.45 312.54"><defs><style>.site-logo-cls-1,.site-logo-cls-10,.site-logo-cls-11,.site-logo-cls-12,.site-logo-cls-13,.site-logo-cls-14,.site-logo-cls-16,.site-logo-cls-17,.site-logo-cls-19,.site-logo-cls-2,.site-logo-cls-20,.site-logo-cls-3,.site-logo-cls-4,.site-logo-cls-5,.site-logo-cls-6,.site-logo-cls-7,.site-logo-cls-8,.site-logo-cls-9{fill-rule:evenodd;}.site-logo-cls-1{fill:url(#linear-gradient);}.site-logo-cls-2{fill:url(#New_Gradient_Swatch_2);}.site-logo-cls-10,.site-logo-cls-3,.site-logo-cls-8{fill:#e8bb29;}.site-logo-cls-4{fill:#365287;}.site-logo-cls-5{fill:#eabc28;}.site-logo-cls-14,.site-logo-cls-7{fill:#a36850;}.site-logo-cls-10,.site-logo-cls-11,.site-logo-cls-13,.site-logo-cls-14,.site-logo-cls-15,.site-logo-cls-16,.site-logo-cls-17,.site-logo-cls-18,.site-logo-cls-20,.site-logo-cls-7,.site-logo-cls-8,.site-logo-cls-9{stroke:#693732;}.site-logo-cls-11,.site-logo-cls-17,.site-logo-cls-18,.site-logo-cls-7,.site-logo-cls-8,.site-logo-cls-9{stroke-linecap:round;}.site-logo-cls-11,.site-logo-cls-7,.site-logo-cls-8,.site-logo-cls-9{stroke-linejoin:round;}.site-logo-cls-11,.site-logo-cls-13,.site-logo-cls-15,.site-logo-cls-17,.site-logo-cls-18,.site-logo-cls-20,.site-logo-cls-9{fill:none;}.site-logo-cls-10,.site-logo-cls-13,.site-logo-cls-14,.site-logo-cls-15,.site-logo-cls-16,.site-logo-cls-17,.site-logo-cls-18,.site-logo-cls-20{stroke-miterlimit:10;}.site-logo-cls-11{stroke-width:0.5px;}.site-logo-cls-12{fill:#693732;}.site-logo-cls-16{fill:#7a423c;}.site-logo-cls-19{fill:#ec2024;}.site-logo-cls-20{stroke-width:0.98px;}</style><linearGradient id="linear-gradient" x1="42.99" y1="39.35" x2="217.55" y2="213.91" gradientUnits="userSpaceOnUse"><stop offset="0" stop-color="#0e6dcb"/><stop offset="0.4" stop-color="#0060a9"/><stop offset="0.65" stop-color="#0060a9"/><stop offset="1" stop-color="#1080ed"/></linearGradient><linearGradient id="New_Gradient_Swatch_2" x1="29.36" y1="22.86" x2="232.41" y2="225.91" gradientUnits="userSpaceOnUse"><stop offset="0" stop-color="#4d4d4d"/><stop offset="0.26" stop-color="#333"/><stop offset="0.5"/><stop offset="0.68"/><stop offset="0.85" stop-color="#333"/><stop offset="1" stop-color="#4d4d4d"/></linearGradient></defs><title>Asset 1</title><g id="Layer_2" data-name="Layer 2"><g id="Layer_1-2" data-name="Layer 1"><path class="site-logo-cls-1" d="M237,90.43c-.37,8.19-.71,16.37-1.12,24.56-.17,3.51-.39,7-.75,10.52-.56,5.36-1.17,10.72-1.93,16.06-.71,5-1.59,9.93-2.52,14.87-.53,2.77-1.3,5.5-2,8.24-.64,2.55-1.18,5.14-2,7.63-1.43,4.31-2.91,8.61-4.62,12.81A156,156,0,0,1,212,204.5c-2.14,3.68-4.23,7.39-6.47,11s-4.65,7.12-7,10.66c-1.5,2.25-3,4.49-4.58,6.68s-3.44,4.58-5.2,6.84-3.69,4.8-5.63,7.11c-2.75,3.25-5.54,6.48-8.41,9.63-2.49,2.74-5.08,5.39-7.71,8-2.14,2.14-4.35,4.23-6.61,6.24-2.5,2.22-5,4.4-7.67,6.46-3.08,2.4-6.25,4.68-9.43,6.93A99.14,99.14,0,0,1,131.62,291a2.47,2.47,0,0,1-2.48,0c-3.64-2-7.31-3.91-10.84-6.07a96.25,96.25,0,0,1-7.94-5.53c-3.48-2.65-7-5.33-10.27-8.2-3.15-2.73-6.12-5.67-9.09-8.6-2.32-2.29-4.61-4.62-6.77-7.06-3-3.44-6-7-8.94-10.52-2.18-2.65-4.29-5.35-6.29-8.12-2.31-3.19-4.54-6.45-6.7-9.74S58,220.43,55.89,217c-1.32-2.16-2.52-4.41-3.78-6.62-1-1.8-2.09-3.56-3-5.39-1.63-3.15-3.24-6.31-4.77-9.5-1.65-3.42-3.25-6.88-4.8-10.35-1.24-2.76-2.39-5.56-3.53-8.36-1-2.39-1.92-4.8-2.77-7.23C32,166,30.78,162.47,29.68,158.9q-2-6.35-3.75-12.73c-.56-2-1-4.11-1.38-6.18-.93-4.68-1.92-9.37-2.71-14.08-.53-3.18-.8-6.42-1.13-9.63-.36-3.5-.79-7-1-10.5a133.65,133.65,0,0,1,.17-19.4c.37-3.85.65-7.72,1.13-11.56.39-3.08,1-6.14,1.58-9.19.37-2,.89-3.89,1.33-5.83A5.6,5.6,0,0,1,26.64,56c2.08-1.25,4-2.78,6-4.08q4.78-3,9.67-5.92,4.27-2.52,8.64-4.84C53.12,40,55.34,39,57.51,38c1.51-.74,3-1.56,4.5-2.24,2.91-1.29,5.85-2.52,8.79-3.76,1.42-.6,2.86-1.18,4.3-1.74,1-.4,2.08-.78,3.14-1.13,4-1.31,7.91-2.7,11.92-3.87,3.6-1.05,7.24-2,10.92-2.72,4.73-.95,9.49-1.75,14.27-2.43,2.88-.42,5.8-.58,8.7-.72,3.19-.15,6.39-.24,9.58-.18a99.31,99.31,0,0,1,14.09,1.08c3.54.59,7.13,1,10.63,1.74,4.86,1.08,9.67,2.41,14.48,3.72q4.09,1.13,8.1,2.51a178.92,178.92,0,0,1,17.74,7.13c4,1.87,8,3.87,11.88,5.91,3.14,1.63,6.25,3.32,9.29,5.13,3.63,2.15,7.17,4.45,10.74,6.72,1.47.94,2.92,1.92,4.33,2.95A2.42,2.42,0,0,1,236,57.94c.22,5.79.56,11.58.7,17.37.12,5,.19,6.17.19,11.21C237,86.52,236.93,90.43,237,90.43Z"/><path class="site-logo-cls-2" d="M257.45,81.9c-.1,5.43-.13,10.87-.32,16.3-.19,5.06-.53,10.12-.82,15.18-.17,2.91-.34,5.82-.6,8.72-.3,3.37-.69,6.73-1.06,10.09-.26,2.42-.52,4.83-.85,7.24-.37,2.68-.77,5.36-1.24,8-.66,3.75-1.31,7.51-2.12,11.23-1,4.52-2,9.06-3.23,13.52-1.33,4.77-2.84,9.5-4.54,14.15a96.15,96.15,0,0,1-6.22,13.91c-4,7.08-7.87,14.19-12,21.15a296.14,296.14,0,0,1-16.61,24.66,284.8,284.8,0,0,1-20.3,24.52,234.73,234.73,0,0,1-17.56,17,171.86,171.86,0,0,1-25.68,18.71,80.8,80.8,0,0,1-11.95,6,3.52,3.52,0,0,1-2.65,0,106.77,106.77,0,0,1-20.32-10.76,172.23,172.23,0,0,1-27.29-22c-4.13-4.06-8.11-8.26-12-12.54a235.94,235.94,0,0,1-16.84-21c-4.47-6.2-8.74-12.54-12.61-19.13-3.63-6.16-7.08-12.42-10.42-18.75A280.18,280.18,0,0,1,15.85,176c-2.7-7.17-5.19-14.41-7.16-21.81-1.53-5.71-2.89-11.48-4.17-17.25Q3.22,131,2.35,125.05c-.63-4.42-1.11-8.86-1.47-13.31C.49,107,.21,102.27.08,97.53,0,93.06,0,88.57.2,84.11a172.58,172.58,0,0,1,2-19.49A131.32,131.32,0,0,1,6.62,46.35a4.85,4.85,0,0,1,1.8-2.46c5.4-4,11-7.57,16.77-11A257.61,257.61,0,0,1,48.55,20.37a240,240,0,0,1,24.27-9.88A192.89,192.89,0,0,1,95.41,4.1c4.23-.91,8.51-1.63,12.79-2.29,3.74-.57,7.49-1.1,11.26-1.35,4.9-.32,9.82-.48,14.72-.46,3.79,0,7.58.32,11.36.67a178.06,178.06,0,0,1,22,3.49A217.11,217.11,0,0,1,205.37,16.5,221.16,221.16,0,0,1,230.48,29c5.81,3.39,11.54,6.93,17.23,10.53,2.65,1.68,5.11,3.67,7.69,5.49a1.68,1.68,0,0,1,.76,1.39c.25,4.58.55,9.16.76,13.75q.25,5.56.34,11.14C257.31,74.8,257.39,81.9,257.45,81.9ZM11.82,93.61c0,1.76-.09,3.52,0,5.27.29,5,.6,10,1,14.93.3,3.45.75,6.9,1.28,10.32q.84,5.38,2,10.71C17,138.9,17.89,143,18.94,147s2.14,7.93,3.49,11.8c2.43,7,4.92,14.06,7.66,21,2.14,5.39,4.62,10.66,7.1,15.91,2,4.28,4.22,8.49,6.45,12.67,1.78,3.33,3.67,6.62,5.64,9.85,3,4.93,6,9.9,9.22,14.66,3.47,5.06,7.15,10,11,14.81,3.67,4.66,7.51,9.21,11.47,13.65,3.12,3.51,6.48,6.82,9.83,10.12,2.47,2.44,5,4.8,7.67,7,3.17,2.66,6.44,5.22,9.75,7.69q4.45,3.33,9.11,6.36c2.56,1.67,5.24,3.17,7.91,4.67,1.46.82,3,1.44,4.5,2.22a2.88,2.88,0,0,0,2.92-.12,131.46,131.46,0,0,0,16.32-10,157.91,157.91,0,0,0,16-13c4-3.73,7.93-7.54,11.75-11.45,3-3.06,5.78-6.29,8.58-9.51,2.44-2.8,4.84-5.63,7.14-8.54,2.58-3.25,5.13-6.53,7.52-9.92,3.88-5.51,7.76-11,11.37-16.71,3.77-6,7.23-12.12,10.79-18.21a136,136,0,0,0,8.09-16,145.92,145.92,0,0,0,6.61-20.21c1.15-4.47,2.09-9,3-13.54s1.73-9,2.27-13.58c1-8.37,1.93-16.75,2.53-25.15.58-8.21.81-16.44,1-24.67.14-5.75,0-11.51-.1-17.26-.14-6.19-.47-12.37-.64-18.56a2.15,2.15,0,0,0-1.07-1.95c-3.68-2.39-7.3-4.86-11-7.18A222.64,222.64,0,0,0,212,32.57q-10.81-5.25-22.11-9.4a193.14,193.14,0,0,0-23.15-7A169.9,169.9,0,0,0,148.15,13a165.91,165.91,0,0,0-16.82-1c-3,0-5.91.16-8.86.38-3.77.28-7.56.58-11.31,1.08a165.38,165.38,0,0,0-19.72,3.94,173.39,173.39,0,0,0-18.27,5.72c-4.14,1.57-8.3,3.1-12.33,4.9Q52.32,31.79,44,36c-4.15,2.1-8.23,4.39-12.21,6.8-4.4,2.66-8.63,5.6-13,8.31a4.87,4.87,0,0,0-2.31,3.15c-1.14,4.68-2.18,9.38-2.91,14.16A163.38,163.38,0,0,0,11.82,93.61Z"/><path class="site-logo-cls-3" d="M11.82,93.61a163.38,163.38,0,0,1,1.75-25.2c.73-4.78,1.77-9.48,2.91-14.16a4.87,4.87,0,0,1,2.31-3.15c4.36-2.71,8.59-5.65,13-8.31,4-2.41,8.06-4.7,12.21-6.8q8.32-4.2,16.85-8c4-1.8,8.19-3.33,12.33-4.9a173.39,173.39,0,0,1,18.27-5.72,165.38,165.38,0,0,1,19.72-3.94c3.75-.5,7.54-.8,11.31-1.08,3-.22,5.91-.42,8.86-.38a165.91,165.91,0,0,1,16.82,1,169.9,169.9,0,0,1,18.63,3.24,193.14,193.14,0,0,1,23.15,7q11.3,4.16,22.11,9.4a222.64,222.64,0,0,1,20.68,11.31c3.72,2.32,7.34,4.79,11,7.18A2.15,2.15,0,0,1,244.81,53c.17,6.19.5,12.37.64,18.56.13,5.75.24,11.51.1,17.26-.19,8.23-.42,16.46-1,24.67-.6,8.4-1.55,16.78-2.53,25.15-.54,4.55-1.4,9.08-2.27,13.58s-1.82,9.07-3,13.54A145.92,145.92,0,0,1,230.17,186a136,136,0,0,1-8.09,16c-3.56,6.09-7,12.25-10.79,18.21-3.61,5.69-7.49,11.2-11.37,16.71-2.39,3.39-4.94,6.67-7.52,9.92-2.3,2.91-4.7,5.74-7.14,8.54-2.8,3.22-5.61,6.45-8.58,9.51-3.82,3.91-7.76,7.72-11.75,11.45a157.91,157.91,0,0,1-16,13,131.46,131.46,0,0,1-16.32,10,2.88,2.88,0,0,1-2.92.12c-1.48-.78-3-1.4-4.5-2.22-2.67-1.5-5.35-3-7.91-4.67q-4.65-3-9.11-6.36c-3.31-2.47-6.58-5-9.75-7.69-2.65-2.23-5.2-4.59-7.67-7-3.35-3.3-6.71-6.61-9.83-10.12-4-4.44-7.8-9-11.47-13.65-3.8-4.83-7.48-9.75-11-14.81-3.26-4.76-6.22-9.73-9.22-14.66-2-3.23-3.86-6.52-5.64-9.85-2.23-4.18-4.42-8.39-6.45-12.67-2.48-5.25-5-10.52-7.1-15.91-2.74-6.92-5.23-13.94-7.66-21-1.35-3.87-2.45-7.84-3.49-11.8s-2-8.06-2.81-12.12q-1.12-5.33-2-10.71c-.53-3.42-1-6.87-1.28-10.32-.44-5-.75-10-1-14.93C11.73,97.13,11.82,95.37,11.82,93.61ZM237,90.43c-.09,0-.18-10.09-.3-15.12-.14-5.79-.48-11.58-.7-17.37a2.42,2.42,0,0,0-1.11-1.89c-1.41-1-2.86-2-4.33-2.95-3.57-2.27-7.11-4.57-10.74-6.72-3-1.81-6.15-3.5-9.29-5.13-3.92-2-7.87-4-11.88-5.91a178.92,178.92,0,0,0-17.74-7.13q-4-1.38-8.1-2.51c-4.81-1.31-9.62-2.64-14.48-3.72-3.5-.78-7.09-1.15-10.63-1.74a99.31,99.31,0,0,0-14.09-1.08c-3.19-.06-6.39,0-9.58.18-2.9.14-5.82.3-8.7.72-4.78.68-9.54,1.48-14.27,2.43-3.68.74-7.32,1.67-10.92,2.72-4,1.17-8,2.56-11.92,3.87-1.06.35-2.1.73-3.14,1.13-1.44.56-2.88,1.14-4.3,1.74-2.94,1.24-5.88,2.47-8.79,3.76-1.53.68-3,1.5-4.5,2.24C55.34,39,53.12,40,51,41.12Q46.62,43.45,42.34,46q-4.87,2.86-9.67,5.92c-2.05,1.3-4,2.83-6,4.08A5.6,5.6,0,0,0,24,59.8c-.44,1.94-1,3.87-1.33,5.83-.58,3.05-1.19,6.11-1.58,9.19-.48,3.84-.76,7.71-1.13,11.56a133.65,133.65,0,0,0-.17,19.4c.17,3.51.6,7,1,10.5.33,3.21.6,6.45,1.13,9.63.79,4.71,1.78,9.4,2.71,14.08.41,2.07.82,4.15,1.38,6.18q1.79,6.39,3.75,12.73c1.1,3.57,2.29,7.12,3.52,10.65.85,2.43,1.8,4.84,2.77,7.23,1.14,2.8,2.29,5.6,3.53,8.36,1.55,3.47,3.15,6.93,4.8,10.35,1.53,3.19,3.14,6.35,4.77,9.5,1,1.83,2,3.59,3,5.39,1.26,2.21,2.46,4.46,3.78,6.62,2.09,3.43,4.21,6.84,6.41,10.2s4.39,6.55,6.7,9.74c2,2.77,4.11,5.47,6.29,8.12,2.92,3.55,5.89,7.08,8.94,10.52,2.16,2.44,4.45,4.77,6.77,7.06,3,2.93,5.94,5.87,9.09,8.6,3.31,2.87,6.79,5.55,10.27,8.2A96.25,96.25,0,0,0,118.3,285c3.53,2.16,7.2,4.09,10.84,6.07a2.47,2.47,0,0,0,2.48,0,99.14,99.14,0,0,0,11.69-6.95c3.18-2.25,6.35-4.53,9.43-6.93,2.64-2.06,5.17-4.24,7.67-6.46,2.26-2,4.47-4.1,6.61-6.24,2.63-2.62,5.22-5.27,7.71-8,2.87-3.15,5.66-6.38,8.41-9.63,1.94-2.31,3.78-4.72,5.63-7.11s3.52-4.52,5.2-6.84,3.08-4.43,4.58-6.68c2.36-3.54,4.76-7,7-10.66s4.33-7.32,6.47-11a156,156,0,0,0,10.05-19.38c1.71-4.2,3.19-8.5,4.62-12.81.83-2.49,1.37-5.08,2-7.63.69-2.74,1.46-5.47,2-8.24.93-4.94,1.81-9.89,2.52-14.87.76-5.34,1.37-10.7,1.93-16.06.36-3.5.58-7,.75-10.52C236.31,106.8,236.65,98.62,237,90.43Z"/><path class="site-logo-cls-3" d="M135.46,57c-.28,0-.4,0-.68-.05a1.26,1.26,0,0,1-1.34-1.23c-.22-1.33-.55-2.65-.84-4-.12-.58-.35-.89-1-.82-1.11.11-2.24.1-3.35.11-.85,0-1.31.31-1.38,1.25-.08,1.19-.31,2.37-.48,3.55s-.42,1.44-1.6,1.45c-.91,0-1.82-.09-2.72-.12a3.8,3.8,0,0,0-.81.13c-.92.2-1.84.42-2.77.61a1.63,1.63,0,0,1-2-1.14c-.61-1.35-1.2-2.69-1.81-4-.84-1.85-1.68-3.7-2.54-5.54-.27-.58-1-.71-1.89-.43-.65.21-.53.68-.46,1.17q.69,4.92,1.36,9.85c.14,1,.08,1.09-.92,1.24-.79.12-1.58.24-2.37.32-.63.05-.94-.29-1-.91Q105.23,46.71,103.63,35c-.14-1-.3-2-.44-3s.15-1.25,1-1.38c1.9-.25,3.8-.56,5.71-.73,4-.35,6.61,1.2,7.67,5.5.52,2.13.93,4.33.09,6.49a7.34,7.34,0,0,1-1.36,2.35,1.21,1.21,0,0,0-.28,1.65c1.46,2.87,2.88,5.76,4.31,8.64.27.53.49,1.09.79,1.6.1.19.37.28.56.41.12-.19.31-.36.35-.56.49-2.63,1-5.26,1.42-7.9s1-5.58,1.48-8.37c.35-2,.76-3.91,1.12-5.87.26-1.41.46-2.84.72-4.25.2-1.08.59-1.38,1.7-1.42,2.17-.09,2.17,0,2.71,2.18,1.06,4.21,2.22,8.4,3.32,12.6s2.18,8.49,3.31,12.73c.18.68.07,1-.69,1.05-.49.07-.65.11-1.16.16Zm-21.54-17.5a11.6,11.6,0,0,0-.24-2.36,10.52,10.52,0,0,0-.41-1.24A2.52,2.52,0,0,0,110.54,34c-.55,0-1.2.14-1.66.19-.73.07-1,.3-.85,1,.31,2.17.57,4.34.81,6.51.08.71.43,1.06,1.09,1,.89-.14,1.76-.4,2.64-.58a1.47,1.47,0,0,0,1.15-1.23A12.21,12.21,0,0,0,113.92,39.46Zm15.64-1.24a2.37,2.37,0,0,0-.3-.5,2.7,2.7,0,0,0-.23.49c-.44,2.25-.88,4.49-1.3,6.74a9.62,9.62,0,0,0-.13,1.51c0,.6.24,1,.9.95h1l-1.16,0h2.26c.83,0,1.07-.41.9-1.15"/><path class="site-logo-cls-3" d="M155.81,32.05c-.36,4.45-.75,8.9-1.08,13.36-.27,3.58-.48,7.16-.72,10.75a7.46,7.46,0,0,1-.11,1c-.12.52-.39.87-1,.76-.2,0-.4,0-.6,0-3-.24-2.18.24-3.11-2.63-1.39-4.32-2.47-8.74-3.69-13.12a2.08,2.08,0,0,0-.28-.47,2.13,2.13,0,0,0-.21.5c-.17,1.74-.34,3.49-.47,5.23-.23,2.95-.44,5.89-.62,8.84a.76.76,0,0,1-.84.8,22.78,22.78,0,0,1-2.74,0c-.68-.08-.84-.61-.78-1.26.15-1.67.28-3.34.4-5,.28-4,.54-8,.83-11.95.24-3.14.5-6.28.76-9.42.08-1,.25-1.13,1.29-1.12.44,0,.87,0,1.31.06,1.41.06,1.57.26,1.93,1.6.56,2.07,1.22,4.11,1.79,6.17s1.17,4.38,1.75,6.58a5.36,5.36,0,0,0,.22.81,4.26,4.26,0,0,0,.49.65,2.81,2.81,0,0,0,.29-.7c.1-.71.15-1.42.2-2.14.24-3.7.49-7.4.72-11.1.05-.83.35-1.19,1.13-1.18s1.6.1,2.39.17a.82.82,0,0,1,.84,1c-.07.64-.08,1.28-.11,1.92Z"/><path class="site-logo-cls-3" d="M78.59,67.2a2.25,2.25,0,0,1-1.32-1C74.2,62.49,71.16,58.76,68.1,55a3.52,3.52,0,0,0-.51-.41,2,2,0,0,0,0,.69c.6,1.82,1.21,3.63,1.85,5.43s1.35,3.66,2,5.49l.73,2c.32.9.09,1.36-.82,1.63l-1.47.46c-1.1.36-1.49.19-1.9-.94-.89-2.47-1.75-5-2.64-7.42s-1.87-5.08-2.78-7.62c-1-2.85-2-5.71-3-8.56-.09-.26-.18-.53-.29-.78-.5-1.09-.25-1.6.89-1.88a6.37,6.37,0,0,0,.72-.29c1.57-.59,1.81-.53,2.92.81,2.46,3,4.88,6,7.33,9,.56.67,1.16,1.3,1.75,1.94.16.17.36.3.53.45a3.11,3.11,0,0,0-.06-.69c-.35-1-.73-1.93-1.08-2.91q-1.81-5.06-3.61-10.11c-.32-.89-.21-1.14.64-1.48a14.91,14.91,0,0,1,1.92-.64c1.07-.27,1.11-.25,1.5.84,1.21,3.32,2.39,6.66,3.6,10,1.46,4,3,8,4.41,12.07.35,1,.67,2,1,3,.16.54.32.7-.6,1.12A11.87,11.87,0,0,1,78.59,67.2Z"/><path class="site-logo-cls-3" d="M116.88,84.86c0,2.64,0,5.28,0,7.92a4.31,4.31,0,0,1-1.19,3.38,2.74,2.74,0,0,1-1.6.63c-4.48.06-9,0-13.44.08a3,3,0,0,1-3-2.38c-.19-1.82-.31-3.65-.34-5.48,0-3.4,0-6.8,0-10.2a13.32,13.32,0,0,1,.28-3.09C98,74,99,73.22,100.48,73.2l10.92-.08a17.17,17.17,0,0,1,2.15.08c2.23.25,3,.9,3.16,3.39.19,2.31.12,4.63.16,7C116.88,84,116.88,84.42,116.88,84.86Zm-3.65-6.54c0-.89-.36-1.09-1.09-1.09H102.08c-.62,0-1.19.07-1.18.93,0,4.44,0,8.88,0,13.32,0,.85.38,1.13,1.12,1.13h2.65c2.22,0,4.44,0,6.66,0,1.91,0,1.91-.08,1.91-1.93S113.2,80.56,113.23,78.32Z"/><path class="site-logo-cls-3" d="M219.1,82.47c-4.65.1-8.63-5-6.31-9.7a77.31,77.31,0,0,1,4-6.76c1.31-2.13,2.71-4.2,4-6.34s2.76-3.68,5.28-4.09a7.08,7.08,0,0,1,7.55,9.59,18.13,18.13,0,0,1-1.92,3.28c-2.35,3.7-4.68,7.4-7.08,11.07A6.23,6.23,0,0,1,219.1,82.47Zm11.14-20.24a2.5,2.5,0,0,0-1.84-2.56,2.43,2.43,0,0,0-3.23,1.1c-1.95,3-3.88,6-5.8,9.1-1,1.66-2,3.35-3.06,5-.72,1.16.11,2.47,1,3.14a2.43,2.43,0,0,0,3.76-.75c.41-.58.77-1.19,1.16-1.79,2.47-3.88,5-7.75,7.4-11.65A3,3,0,0,0,230.24,62.23Z"/><path class="site-logo-cls-3" d="M201.43,45.59c-.23,1.09-.43,2.17-.7,3.24a.72.72,0,0,1-1,.6,24.68,24.68,0,0,1-2.84-.9c-.7-.32-.38-1-.28-1.6a5.22,5.22,0,0,0,.28-1.25A2.61,2.61,0,0,0,194.28,43a2.35,2.35,0,0,0-1.69.92,10.93,10.93,0,0,0-1.41,3c-.4,1.31.41,2.27,1.32,3.1l2.81,2.57c2.14,2,2.1,4.46,1.34,7a21.84,21.84,0,0,1-1.85,4.14c-2,3.54-5.27,4.33-8.91,2.66a7,7,0,0,1-3.74-8.56,5.2,5.2,0,0,1,.32-.77c.32-.68.74-.94,1.5-.53a22.6,22.6,0,0,0,2.21.88.68.68,0,0,1,.41,1,8.85,8.85,0,0,0-.31,1.15,2.44,2.44,0,0,0,1.82,3,2.33,2.33,0,0,0,3.23-1.32c.41-1.08.87-2.14,1.18-3.25a2.54,2.54,0,0,0-.82-2.8,38.84,38.84,0,0,1-3.46-3.45c-1.72-1.92-1.81-4.22-1.13-6.54a9.84,9.84,0,0,1,3-4.92c2.09-1.79,4.36-1.9,6.83-1.09A6.81,6.81,0,0,1,201.43,45.59Z"/><path class="site-logo-cls-3" d="M168.94,85.09c0-3.48,0-7,0-10.43,0-1.34.26-1.6,1.49-1.59,4.32,0,8.63,0,12.95,0,1.66,0,1.85.2,1.8,1.88,0,.11,0,.23,0,.35,0,2,.27,2-2.15,2-3,0-5.92,0-8.87,0-1.06,0-1.27.22-1.29,1.24s0,1.76,0,2.64.29,1.1,1.05,1.1c1.56,0,3.11,0,4.67,0s1.48.07,1.48,1.46l0,1.32c0,1.25-.19,1.49-1.4,1.48l-4.31,0c-1.42,0-1.46,0-1.5,1.44,0,1,0,1.92,0,2.88,0,1.14.18,1.3,1.34,1.31l8,0h2.16c.76,0,1.07.33,1,1.11s0,1.51,0,2.27c0,1.13-.1,1.22-1.26,1.23-2.76,0-5.51,0-8.27,0-1.8,0-3.6.07-5.39.07-1.47,0-1.54-.37-1.52-1.4,0-3.47,0-7,0-10.42Z"/><path class="site-logo-cls-3" d="M147.28,85.25c0-2.39,0-4.79,0-7.19a11.72,11.72,0,0,1,.41-2.83,2.54,2.54,0,0,1,2.58-2c3.92,0,7.83-.07,11.74,0a2.72,2.72,0,0,1,2.33,2.4c.22,1.53.24,3.09.31,4.64,0,.76-.41,1.14-1.17,1.24-.51.06-1,.23-1.5.34-.83.19-1.18-.06-1.21-.92s0-1.52,0-2.28-.12-1-.9-1c-1.84,0-3.68,0-5.51,0-.72,0-1.44,0-2.16,0s-1.05.29-1,1.07c0,2.28,0,4.55,0,6.83,0,1.88.05,3.75,0,5.63,0,.73.21,1.13,1,1.13,2.51,0,5,0,7.55,0,.81,0,1.12-.39,1.07-1.18s-.05-1.6-.07-2.4c0-1.17.46-1.55,1.52-1.14a4.17,4.17,0,0,0,.44.19c2.1.53,2,.42,2,2.8a12.94,12.94,0,0,1-.51,4.62,2.37,2.37,0,0,1-2.33,1.71c-3.92,0-7.83,0-11.75,0A2.41,2.41,0,0,1,147.81,95a10.55,10.55,0,0,1-.53-4.12c0-1.88,0-3.76,0-5.64Z"/><path class="site-logo-cls-3" d="M48.94,76.85c.17,2.67-1.9,4.82-4.28,6a6.56,6.56,0,0,1-7.09-.74,6.86,6.86,0,0,1-2.28-3c-.32-.77.47-1,.91-1.34A12.53,12.53,0,0,1,37.64,77a1,1,0,0,1,1.6.32c.12.16.24.32.37.47,1.4,1.82,3.1,1.86,4.56,0a1.74,1.74,0,0,0,.37-1.17A8.28,8.28,0,0,0,42,71.54a1.64,1.64,0,0,0-1.08-.36c-1.16,0-2.31.16-3.46.24L35,71.58a5,5,0,0,1-4.48-2c-1.73-2.15-3.09-4.49-2.83-7.41A6.37,6.37,0,0,1,31,57a6.76,6.76,0,0,1,6.84-.29,7.26,7.26,0,0,1,3.21,3.55.83.83,0,0,1-.41,1.2c-.7.38-1.35.85-2,1.23s-1.2-.07-1.59-.62a3.29,3.29,0,0,0-1.85-1.6A2.56,2.56,0,0,0,32,63.36a6,6,0,0,0,2,3.45,3.2,3.2,0,0,0,2,.45c1.39-.06,2.78-.27,4.16-.46A5.51,5.51,0,0,1,46,69.43a36,36,0,0,1,2.54,4.85A10.71,10.71,0,0,1,48.94,76.85Z"/><path class="site-logo-cls-3" d="M49,47.85c.55,0,.86.7,1.15,1.08,2.34,3.16,4.64,6.35,7,9.5,3,4,6,7.93,9,11.89.71.94.66,1.17-.37,1.67-.61.3-1.25.54-1.83.88a1,1,0,0,1-1.43-.36c-.81-1.13-1.66-2.23-2.41-3.4a1.1,1.1,0,0,0-1.69-.42,21.45,21.45,0,0,1-2.73,1.22,1.12,1.12,0,0,0-.84,1.55c.32,1.15.6,2.31.92,3.45a1.54,1.54,0,0,1-1,2.2,12,12,0,0,1-1.33.55c-1.2.45-1.34.37-1.62-.94-.47-2.18-.93-4.37-1.4-6.55-.93-4.32-1.88-8.63-2.79-13-.49-2.29-.94-4.6-1.36-6.91a1.16,1.16,0,0,1,.24-1A8.32,8.32,0,0,1,49,47.85Zm8.15,16.91c-.83-1.86-3.68-5.22-5-7.18a2.72,2.72,0,0,0-.74-.54,4.6,4.6,0,0,0,0,.91c.47,2.11,1,4.21,1.43,6.31.61,2.73,1.28,2.85,3.86,1.2C56.79,65.37,57.28,65.14,57.17,64.76Z"/><path class="site-logo-cls-3" d="M78.14,74.73c0-1.41.2-1.61,1.58-1.61H90.39c.64,0,1.28.06,1.92.09A2.58,2.58,0,0,1,95,75.83a70.79,70.79,0,0,1,.2,8.49,3.32,3.32,0,0,1-3.8,3.38c-2.71-.14-5.43,0-8.15,0-1.24,0-1.3.06-1.31,1.27,0,2.16,0,4.32,0,6.48,0,1.27-.06,1.33-1.33,1.41-2.37.15-2.46.08-2.46-2.25V85S78.14,78.17,78.14,74.73Zm8.33,8.87h3.64c1.14,0,1.62-.43,1.67-1.57s0-2.26-.06-3.38c-.06-.94-.42-1.33-1.31-1.35-2.6,0-5.2,0-7.79,0a.75.75,0,0,0-.88.82c0,1.55,0,3.1,0,4.64,0,.7.37.92,1,.89C84,83.57,85.26,83.6,86.47,83.6Z"/><path class="site-logo-cls-3" d="M203.81,73.89a6.51,6.51,0,0,1-5.63-9.62c2.27-4.7,4.6-9.36,6.88-14,1.51-3.08,4.27-4.54,7.27-4,4.65.88,6.63,5.57,5.25,8.71-.27.62-.46,1.28-.69,1.91a.78.78,0,0,1-1.14.54,23.5,23.5,0,0,1-2.62-1.4c-.7-.43-.28-.82-.12-1.21s.35-.82.45-1.28A2.26,2.26,0,0,0,212,50.7a2,2,0,0,0-2.59.93,38.91,38.91,0,0,0-2,3.76q-1.68,3.3-3.28,6.63c-.74,1.53-1.49,3.06-2.14,4.63a1.86,1.86,0,0,0,.94,2.43,2.21,2.21,0,0,0,2.74-.15,7.91,7.91,0,0,0,1-1.45A1,1,0,0,1,208.1,67c.74.38,1.47.8,2.2,1.2a.71.71,0,0,1,.37,1.08,9.41,9.41,0,0,1-2.37,3.26A6.78,6.78,0,0,1,203.81,73.89Z"/><path class="site-logo-cls-3" d="M169.8,38.62c0-.58,0-1-.08-1.37a2,2,0,0,0-1.87-1.87,1.88,1.88,0,0,0-2.2,1,6.22,6.22,0,0,0-.59,1.68q-1.4,7.17-2.73,14.33a2.47,2.47,0,0,0,.77,2.7c1.34,1,3.2.51,3.87-1.59.08-.26.26-.54.34-.77.18-.41.25-.73.73-.8a7.42,7.42,0,0,1,2.84.73.77.77,0,0,1,.45.71,7.39,7.39,0,0,1-3.2,5.61,6.49,6.49,0,0,1-6.19.47A6.06,6.06,0,0,1,158,52.61c.55-3.26,1.18-6.5,1.79-9.75.43-2.31.86-4.62,1.34-6.92.81-3.9,4.79-5.88,8.79-4.59a6.79,6.79,0,0,1,4.26,7.33c-.31,2.18-.37,2.25-2.55,1.79l-.43-.09C169.78,40,169.8,39.94,169.8,38.62Z"/><path class="site-logo-cls-3" d="M96.77,61c.22.47-.33.78-.63.88-.83.27-1.7.44-2.55.64a.82.82,0,0,1-1.06-.7c-.4-1.62-.78-3.25-1.16-4.88-.49-2.14-1-4.28-1.45-6.41q-1-4.2-1.91-8.38c-.48-2.1-.93-4.19-1.43-6.28-.24-1-.11-1.3.87-1.52,2.72-.63,5.44-1.23,8.16-1.87.38-.08.84-.2,1.23-.31,1.15-.33,1.53-.14,1.81,1,.11.43.18.86.32,1.28.31.93.15,1.31-.84,1.56-1.62.41-3.25.76-4.88,1.14-.35.08-.71.15-1,.26a.83.83,0,0,0-.6,1.12c.47,2.06.9,4.13,1.38,6.19.2.82.68,1,1.53.8,1.39-.35,2.78-.72,4.18-1,1-.22,1.29-.07,1.63.91a11.14,11.14,0,0,1,.45,2c.11.78-.5,1-1.09,1.17-1.31.31-2.65.51-4,.83-1.14.27-1.67.39-1.19,2.09.67,2.33,1.09,4.73,1.62,7.11C96.34,59.43,96.51,60,96.77,61Z"/><path class="site-logo-cls-3" d="M121.26,85c0-3.48,0-7,0-10.43,0-1.27.11-1.36,1.37-1.42,2.55-.12,2.56-.12,2.56,2.44q0,7.62,0,15.24c0,1.37,0,1.41,1.42,1.41l9,0c.92,0,1.24.23,1.3,1.15s0,1.76,0,2.64c0,.69-.4.86-1,.86-2,0-3.92,0-5.88,0h-7.32c-1.29,0-1.47-.17-1.47-1.44C121.25,91.94,121.26,88.47,121.26,85Z"/><path class="site-logo-cls-3" d="M184.72,35.65c-.35,1.39-.63,2.6-1,3.78-1.46,5.3-2.95,10.6-4.43,15.89-.58,2.1-1.15,4.21-1.74,6.3-.3,1.08-.85,1.36-1.91,1-.57-.18-1.15-.35-1.73-.5a1,1,0,0,1-.73-1.38c1.2-4.16,2.45-8.31,3.62-12.48,1-3.76,2-7.54,3-11.31.19-.69.41-1.38.66-2.05a.86.86,0,0,1,1.17-.65,18.93,18.93,0,0,1,2,.61C184.12,35,184.68,35.13,184.72,35.65Z"/><path class="site-logo-cls-3" d="M143,85.2c0,3.6,0,7.2,0,10.79a.87.87,0,0,1-.24.72,1.26,1.26,0,0,1-.52.15,6.09,6.09,0,0,1-2.72-.13c-.67-.29-.4-1.67-.41-2.51-.06-6.59,0-13.19,0-19.78,0-1.14.18-1.29,1.31-1.32,2.55-.07,2.54-.07,2.54,2.49,0,3.2,0,2,0,5.18C143,80.79,142.93,85.2,143,85.2Z"/><path class="site-logo-cls-4" d="M156.62,222.18l-.9,1C155.5,222.51,155.75,222.25,156.62,222.18Z"/><path class="site-logo-cls-4" d="M148,210.1l-.26,0Z"/><path class="site-logo-cls-4" d="M188.23,224.89l.06.06.05-.06Z"/><path class="site-logo-cls-4" d="M157.08,221.18c-.09.16-.18.32-.28.48l-.17-.13.47-.34Z"/><path class="site-logo-cls-4" d="M129.46,198.22l-.08.19s-.07-.06-.06-.09a.64.64,0,0,1,.08-.19Z"/><path class="site-logo-cls-4" d="M111.3,210.5v0Z"/><path class="site-logo-cls-5" d="M70.43,209.21l-.11-.21.25.08Z"/><path class="site-logo-cls-3" d="M148,237.12a1.88,1.88,0,0,1-.86,1.12c-.73.55-1.18.31-1.32-.6-.1-.62-.16-1.25-.27-1.87-.13-.78.34-.88.92-.83C147.29,235,148,235.63,148,237.12Z"/><path class="site-logo-cls-3" d="M157.72,235.2a2,2,0,0,1-.79,1c-.69.55-1,.4-1.26-.42-.18-.65-.32-1.31-.5-2s.11-.81.64-.88A1.85,1.85,0,0,1,157.72,235.2Z"/><path class="site-logo-cls-3" d="M168.74,235.9a7.11,7.11,0,0,1-1.44.38.79.79,0,0,1-.63-.45c-.26-1.13-.45-2.27-.65-3.41a1.32,1.32,0,0,1,.09-.42,1.24,1.24,0,0,1,.28.19c.64,1,1.27,2,1.9,3.05A3.45,3.45,0,0,1,168.74,235.9Z"/><path class="site-logo-cls-3" d="M132.6,248.68a111.57,111.57,0,0,1-34.46-5.22c-3.23-1-6.35-2.41-9.57-3.5a4.63,4.63,0,0,1-2.85-3,15.19,15.19,0,0,1-1-6c.07-2.75,1.71-4.75,3.59-6.54a1.58,1.58,0,0,1,1.29-.06c3.38,1.11,6.71,2.39,10.12,3.38A111.92,111.92,0,0,0,124.21,232a106.75,106.75,0,0,0,32.11-2.92,103.8,103.8,0,0,0,16.56-5.61c1.36-.6,1.65-.54,1.77.94a38.61,38.61,0,0,1,.13,6.45c-.24,3-.79,6-1.17,9a1.72,1.72,0,0,1-1.23,1.56,100.7,100.7,0,0,1-12.59,3.9A120.88,120.88,0,0,1,132.6,248.68Zm-35-7.47c-.14.6.25.76.71.86a.7.7,0,0,0,1-.58c.37-1.55.78-3.09,1.18-4.64.06-.21.16-.42.24-.63a3.54,3.54,0,0,1,.3.66,3.37,3.37,0,0,1,.09.71c.1,1.48.23,2.95.26,4.42,0,.79.43,1,1.1,1.15s.84-.46,1-.94c.2-.69.33-1.4.51-2.1l1.92-7.78c.12-.48.26-.94-.43-1.15s-1-.16-1.15.56c-.41,1.67-.86,3.32-1.3,5,0,.12-.2.2-.3.3a2,2,0,0,1-.1-.32c-.07-.8-.15-1.59-.2-2.39-.07-1.08-.14-2.15-.18-3.23,0-.82-.63-.92-1.24-1s-.67.39-.78.81l-.63,2.55Zm48.71-7.85c-.53.08-1.28.2-2,.29s-.87.42-.77,1.06q.79,5.14,1.55,10.3c.09.59.24,1,1,.87s.88-.49.77-1.17c-.21-1.25-.37-2.52-.54-3.78a1.82,1.82,0,0,1,.06-.46c.15.09.36.15.45.29.45.71.86,1.44,1.28,2.16s.72,1.25,1.11,1.85,1.5.72,1.86.24c.16-.2-.05-.78-.24-1.11-.57-1-1.18-2.08-1.85-3.07a1.33,1.33,0,0,1,.14-2,3.18,3.18,0,0,0,.3-3.81A3,3,0,0,0,146.34,233.36Zm13.43,1.53c-.13-2.48-2-4-4.3-3.46-.58.14-1.15.34-1.73.47s-.82.45-.64,1.12c.9,3.31,1.77,6.64,2.63,10,.16.6.33,1.06,1.12.88s.81-.61.63-1.25c-.33-1.19-.63-2.39-.93-3.59a2.44,2.44,0,0,1,0-.66,2.49,2.49,0,0,1,.53.43c.78,1,1.53,2.05,2.3,3.07a4.85,4.85,0,0,0,.6.74c.35.32,1.59.24,1.74-.17.09-.25-.16-.7-.36-1-.82-1.13-1.67-2.24-2.53-3.34a.84.84,0,0,1,0-1.24A10.67,10.67,0,0,0,159.77,234.89Zm-28.38,4.79h.22c0-1.48,0-3,0-4.43,0-.58-.24-.76-.78-.8-.7,0-1,.18-1,.93,0,2.08-.07,4.16-.13,6.23,0,.84-.08,1.68-.17,2.51-.08.65-.38,1.18-1.13,1.17s-1-.55-1-1.22,0-1.51,0-2.27c0-2.2.12-4.4.17-6.59,0-.78-.24-1-1-.94s-.8.53-.81,1.07c0,2,0,4-.09,6a26.76,26.76,0,0,0,0,3.1c.21,1.8,1.23,2.56,3,2.49s2.7-1,2.77-2.94C131.43,242.56,131.39,241.12,131.39,239.68ZM115,241.36c.14,1.09,0,1.83.15,2.57a2.64,2.64,0,0,0,2.39,2.19,2.43,2.43,0,0,0,2.69-1.38,10.17,10.17,0,0,0,1.05-3.15c.33-2.55.86-2.34-1.94-2.69-.57-.07-1.11-.25-1.31.57s.34.91.93,1c.22,0,.83,0,.8.11a22.82,22.82,0,0,1-1.17,3.5c-.28.63-1.07.55-1.45-.08a2.18,2.18,0,0,1-.32-1,18.75,18.75,0,0,1,.86-6.86c.18-.55.44-1.07,1.12-1.09s.85.52,1,1,.5.71,1.07.55.8-.41.66-1a2.68,2.68,0,0,0-2-2.16,2.49,2.49,0,0,0-2.8.86,5.82,5.82,0,0,0-1,2.14C115.25,238.17,115.22,239.93,115,241.36Zm52.2-3a2.26,2.26,0,0,1,.48-.56,5.81,5.81,0,0,1,1-.43c.51-.23.91-.21,1.2.35a5.79,5.79,0,0,0,.72,1.1c.53.59,1.05.1,1.51-.12s.18-.61,0-.89c-2-3-4.08-6-6.09-9a.92.92,0,0,0-1.32-.36.9.9,0,0,0-.64,1.19c.4,2.12.71,4.25,1.07,6.38.23,1.42.48,2.84.73,4.25.15.79.49,1,1.13.54a1.26,1.26,0,0,0,.44-.84A8.66,8.66,0,0,0,167.18,238.36Zm-29,8.24c.34,0,1-.09,1.61-.11s.82-.23.8-.79-.39-.67-.89-.68c-1.83,0-1.83-.05-2-1.88V243c-.18-2-.18-2,1.8-2.31h.12c.49,0,.69-.3.66-.79a.65.65,0,0,0-.77-.7l-1.2,0c-.61.05-.88-.24-.88-.84,0-.24,0-.48,0-.72,0-1.77,0-1.78,1.72-2,.48-.07.87-.15.84-.77s-.45-.75-1-.72c-.76,0-1.52,0-2.27.1-1.22.08-1.28.12-1.22,1.36.16,3.11.33,6.22.53,9.33C136.17,246.83,136,246.69,138.22,246.6ZM93.09,227.51a3.16,3.16,0,0,0-.55.78c-.35.93-.64,1.89-1,2.84-.76,2.35-1.51,4.71-2.3,7.05-.22.66-.14,1,.59,1.26s1.67.54,2.49.84c.53.2.9.18,1.13-.44s-.2-.82-.65-1c-1.71-.73-1.71-.73-1.08-2.51l.09-.22c.6-1.75.61-1.76,2.37-1.29.48.12.87.14,1.08-.4s-.06-.8-.54-1-1.47-.44-1.59-.85.28-1.26.47-1.91l.13-.46c.16-.54.48-.69,1-.49a4.13,4.13,0,0,0,1.25.36,1,1,0,0,0,.77-.49c.1-.19,0-.73-.18-.79C95.52,228.32,94.38,228,93.09,227.51Z"/><path class="site-logo-cls-3" d="M115.21,199.5c0,.19,0,.54-.2.5a5.64,5.64,0,0,1-1.52-.18,1,1,0,0,1,0-.63c.3-1.08.63-2.14,1-3.21a1.47,1.47,0,0,1,.25-.38,2.08,2.08,0,0,1,.15.39C114.94,197.09,115.06,198.2,115.21,199.5Z"/><path class="site-logo-cls-3" d="M151.74,206.71c-3,0-5.93-.14-8.87,0-2.47.15-4.9.69-7.35,1.07l-1.3.19c-1,.16-1.09.15-1.27-.87a38.67,38.67,0,0,1-.44-9.67c.1-1.24.27-2.47.3-3.7,0-.87.45-1.18,1.21-1.32,3.11-.57,6.19-1.27,9.31-1.72a77.07,77.07,0,0,1,17.83-.48,71.73,71.73,0,0,1,32.65,10.93,61.79,61.79,0,0,1,8.37,6.4,1.94,1.94,0,0,1,.67,2,26.5,26.5,0,0,1-3.43,9.65,7.58,7.58,0,0,1-3.28,3.23c-.66.27-1.14.27-1.49-.42-2.51-4.94-7.07-7.5-11.69-9.89-5.43-2.81-11.33-4.08-17.35-4.88A70.69,70.69,0,0,0,151.74,206.71Zm33.9-6.57a2.82,2.82,0,0,0-1.67-2.42,17.29,17.29,0,0,0-1.77-.73c-1.19-.45-1.2-.45-1.64.71-.66,1.72-1.32,3.43-2,5.15-.55,1.46-1.06,2.93-1.66,4.37-.3.75,0,1,.66,1.2s.87-.21,1-.67c.45-1.16.88-2.32,1.33-3.47.05-.12.22-.21.33-.32.07.13.21.26.22.39,0,.44,0,.88,0,1.31,0,1.08,0,2.16,0,3.24a1.27,1.27,0,0,0,1.37,1.18c.8,0,.49-.68.49-1.09,0-1.35,0-2.71-.11-4.07a.88.88,0,0,1,.79-1.07C184.67,203.43,185.55,202.18,185.64,200.14Zm-11.47-2.89a3,3,0,0,0-2.49-3.19c-.51-.12-1-.21-1.53-.31-1.12-.22-1.19-.2-1.43,1-.68,3.28-1.33,6.57-2,9.86-.15.7.06,1.05.75,1.19s.88-.23,1-.83c.21-1.18.48-2.35.75-3.52a2.53,2.53,0,0,1,.3-.59,1.88,1.88,0,0,1,.33.58c.22,1,.4,2.11.59,3.17a9.51,9.51,0,0,0,.28,1.41c.24.71,1,.75,1.5.69.69-.06.35-.66.28-1-.24-1.34-.43-2.69-.78-4-.18-.7,0-1,.61-1.27A3.19,3.19,0,0,0,174.17,197.25Zm12.61,14.41c0,.94.62,1.42,1.1,1.93,1.18,1.23,2.78,1.23,4.12-.19a28.36,28.36,0,0,0,3.34-4.48,10.83,10.83,0,0,0,1.16-3.09,2.33,2.33,0,0,0-1-2.42,2.61,2.61,0,0,0-3.32-.13,17.46,17.46,0,0,0-4.23,5.39A7.94,7.94,0,0,0,186.78,211.66Zm-26.57-6.84,1.07.11c.51,0,1,0,1-.67s-.31-.8-.89-.85c-1.72-.15-1.72-.17-1.64-1.87,0-.16,0-.32,0-.48.16-1.89.16-1.89,2.1-1.89H162a.64.64,0,0,0,.78-.68c0-.49-.13-.76-.64-.79s-.88-.09-1.31-.11-.77-.34-.71-.87c0-.23,0-.47.07-.71.21-1.84.21-1.85,2-1.85.48,0,.86,0,.89-.67s-.24-.8-.76-.84c-.84-.07-1.68-.1-2.51-.21s-1.15.13-1.21,1c-.2,2.91-.47,5.81-.69,8.71C157.7,205.26,157.72,204.61,160.21,204.82Zm-19.16-10.47h0c.27,3.23.54,6.45.79,9.68,0,.63.25.95.94.92s.9-.37.84-1c-.1-.92-.18-1.83-.24-2.75-.12-1.91-.11-1.91,1.77-2.26.67-.12,1.05-.87.59-1.26a1.69,1.69,0,0,0-1.11-.16c-1.46.11-1.47.11-1.63-1.3,0-.16,0-.31-.05-.47-.11-1.74-.12-1.66,1.4-1.76.2,0,.39-.05.59-.08.55-.07.55-.48.54-.89s-.27-.63-.7-.6l-3.1.27c-.49.05-.69.34-.66.83C141,193.79,141,194.07,141.05,194.35Zm11.72,4s0-1.41-.07-1.41c0-1.71-.06-2,0-3.74,0-.75-.27-1-1-1s-.81.48-.81,1c0,3.43,0,6.87,0,10.3,0,.63.18,1,.88,1s1-.3,1-1C152.75,201.78,152.77,200.07,152.77,198.35Z"/><path class="site-logo-cls-3" d="M182,202.26c-.93,0-1.13-.27-.82-1.15.23-.64.47-1.27.74-1.89.2-.46.52-.53,1-.27a1.66,1.66,0,0,1,.82,1.92A1.71,1.71,0,0,1,182,202.26Z"/><path class="site-logo-cls-3" d="M170.54,199c-.54,0-.82-.22-.72-.79.14-.74.27-1.49.44-2.23s.55-.6,1-.41a1.67,1.67,0,0,1,1,1.95A1.63,1.63,0,0,1,170.54,199Z"/><path class="site-logo-cls-3" d="M188.8,211.51a3.42,3.42,0,0,1,.33-1c1.05-1.69,2.05-3.23,3.14-4.9a3.41,3.41,0,0,1,.44-.51c.47-.42.86-1,1.67-.43s.42,1.17.17,1.75A20.4,20.4,0,0,1,191,212a2.65,2.65,0,0,1-.85.63C189.41,212.92,188.78,212.47,188.8,211.51Z"/><path class="site-logo-cls-3" d="M80.41,207.3c.13.52-.4.78-.72.91a1.33,1.33,0,0,1-.92,0,2.31,2.31,0,0,1-.24-.29,16.29,16.29,0,0,1-3.19-7.1,1.42,1.42,0,0,1,.59-1.15,1.23,1.23,0,0,1,1.14.31C78.78,202.07,80.54,205.83,80.41,207.3Z"/><path class="site-logo-cls-3" d="M68.74,203.79a1.93,1.93,0,0,1,1.76,1.51,1.65,1.65,0,0,1-.81,1.81.79.79,0,0,1-.75-.18,15.81,15.81,0,0,1-1.07-1.71C67.38,204.36,67.72,203.8,68.74,203.79Z"/><path class="site-logo-cls-3" d="M67.12,215.29c0,.84-.58,1.29-1.28,1a2.67,2.67,0,0,1-1.06-.75q-1.85-2.41-3.6-4.91a1.83,1.83,0,0,1-.35-1,1.52,1.52,0,0,1,.37-1,1,1,0,0,1,.9-.11,2.32,2.32,0,0,1,.6.44A19.14,19.14,0,0,1,67,214.67,2.66,2.66,0,0,1,67.12,215.29Z"/><path class="site-logo-cls-6" d="M82,206.45c0,2.05-.53,3-1.71,3.4a2.85,2.85,0,0,1-3.4-1,17.24,17.24,0,0,1-3.2-6.9c-.4-1.92.14-3.19,1.46-3.81s2.74-.24,3.9,1.41A16.5,16.5,0,0,1,82,206.45Zm-1.62.87c0-1.18-1.59-5.25-3.3-7.36a1.23,1.23,0,0,0-1.14-.31,1.42,1.42,0,0,0-.59,1.15,16.29,16.29,0,0,0,3.19,7.1,2.26,2.26,0,0,0,.29.25,1.05,1.05,0,0,0,1.55-.83Z"/><path class="site-logo-cls-6" d="M70.43,209.21c.64,1.18,1.27,2.38,1.94,3.55.3.52.39.92-.19,1.31s-1,.25-1.35-.36c-1.16-2-2.36-4-3.54-6-.6-1-1.18-2-1.79-3-.34-.55-.31-.95.29-1.27s1.09-.67,1.65-1a3,3,0,0,1,3.48.18,3.53,3.53,0,0,1,1.3,3.73c-.35,1.2-.35,1.2.69,2s1.88,1.36,2.78,2.08c.29.24.94.35.63,1a1.42,1.42,0,0,1-1.77.49,6.22,6.22,0,0,1-.58-.43l-3.4-2.41-.25-.08Zm-1.69-5.42c-1,0-1.36.57-.87,1.43a15.81,15.81,0,0,0,1.07,1.71.79.79,0,0,0,.75.18,1.65,1.65,0,0,0,.81-1.81A1.93,1.93,0,0,0,68.74,203.79Z"/><path class="site-logo-cls-6" d="M68.87,215.48A2.8,2.8,0,0,1,65.21,218c-2.23-.75-6.12-6-6.22-8.4a2.77,2.77,0,0,1,3.76-2.72c2.27.87,5.94,5.91,6.1,8.36C68.86,215.32,68.86,215.4,68.87,215.48Zm-1.75-.19a2.66,2.66,0,0,0-.17-.62,19.14,19.14,0,0,0-4.25-5.73,1.21,1.21,0,0,0-.5-.33c-.34-.05-.8-.17-1,0a1.52,1.52,0,0,0-.37,1,1.83,1.83,0,0,0,.35,1q1.76,2.49,3.6,4.91a2.67,2.67,0,0,0,1.06.75C66.54,216.58,67.13,216.13,67.12,215.29Z"/><path class="site-logo-cls-6" d="M93.13,227.5c1.3.45,2.39.82,3.5,1.27a.7.7,0,0,1,.18.79,1,1,0,0,1-.77.49,4.13,4.13,0,0,1-1.25-.36c-.53-.2-.85-.05-1,.49l-.13.46c-.19.65-.64,1.37-.47,1.91s1,.61,1.59.85.74.46.54,1-.6.52-1.08.4c-1.76-.47-1.77-.46-2.37,1.29l-.09.22c-.63,1.78-.63,1.78,1.08,2.51.45.2.91.33.65,1s-.6.64-1.13.44c-.82-.3-1.65-.6-2.49-.84s-.81-.6-.59-1.26c.79-2.34,1.54-4.7,2.3-7.05.31-.95.6-1.91,1-2.84C92.64,228,92.82,227.38,93.13,227.5Z"/><path class="site-logo-cls-6" d="M131.37,244c-.07,1.91-1,2.88-2.77,2.94s-2.83-.69-3-2.49a26.76,26.76,0,0,1,0-3.1c0-2,.06-4,.09-6,0-.54.06-1,.81-1.07s1,.16,1,.94c-.05,2.19-.12,4.39-.17,6.59,0,.76,0,1.52,0,2.27s.27,1.21,1,1.22,1.05-.52,1.13-1.17c.09-.83.14-1.67.17-2.51.06-2.07.12-4.15.13-6.23,0-.75.33-1,1-.93.54,0,.79.22.78.8,0,1.47,0,2.95,0,4.43C131.6,240.35,131.43,242.56,131.37,244Z"/><path class="site-logo-cls-6" d="M114.91,241.3a25.2,25.2,0,0,1,.73-4.83,5.82,5.82,0,0,1,1-2.14,2.49,2.49,0,0,1,2.8-.86,2.68,2.68,0,0,1,2,2.16c.14.61-.09.86-.66,1s-.92.08-1.07-.55-.3-1-1-1-.94.54-1.12,1.09a18.75,18.75,0,0,0-.86,6.86,2.18,2.18,0,0,0,.32,1c.38.63,1.17.71,1.45.08a21.71,21.71,0,0,0,1.05-3.38c0-.09-.46-.19-.68-.23-.59-.11-1.13-.16-.93-1s.74-.64,1.31-.57c2.8.35,2.27.14,1.94,2.69a10.17,10.17,0,0,1-1.05,3.15,2.43,2.43,0,0,1-2.69,1.38,2.64,2.64,0,0,1-2.39-2.19A10.71,10.71,0,0,1,114.91,241.3Z"/><path class="site-logo-cls-6" d="M133.82,251.08a91.77,91.77,0,0,1-17.45-.92,89,89,0,0,1-15-3.07q-5.59-1.74-11.15-3.6c-1.32-.44-2.58-1.07-3.88-1.57-1.81-.68-2.5-2.26-3.21-3.83a14.71,14.71,0,0,1-1.34-6.38,11.94,11.94,0,0,1,2.87-7.55c.42-.52.8-1.08,1.22-1.61,1.24-1.55,2.42-3.17,3.77-4.61,1.5-1.61,3.64-1.74,5.65-1.92a23.58,23.58,0,0,1,10.1,1.57,11.26,11.26,0,0,1,4.17,2.21,10,10,0,0,1,1.73,2.11c.92,1.51-.13,3.28-1.56,4.12-.13.08-.3.1-.43.19-.39.27-.76.56-1.13.84.41.12.81.28,1.22.37a65.84,65.84,0,0,0,11.85,1.69c4,.19,8,.4,12.07.44a52,52,0,0,0,6.82-.46c3.64-.46,7.26-1.06,10.89-1.61.82-.13,1.65-.27,2.46-.46s.83-.45.32-1c-2-2.26-1.33-3.65,0-5.39a14,14,0,0,1,5.47-3.74,20.73,20.73,0,0,1,8-1.8,12.9,12.9,0,0,1,3.44.35,4.06,4.06,0,0,1,3.21,2.88,1.48,1.48,0,0,0,.4.59c.29.27.51.18.52-.23s-.06-.64,0-1a4.06,4.06,0,0,1,2.36-3.84l.65-.3c.44-.21.4-.48,0-.68a9.08,9.08,0,0,0-1.33-.55A57.17,57.17,0,0,0,166.31,210a67.46,67.46,0,0,0-11.45-.86c-.71,0-1.43,0-2.14,0s-.82.31-.53.86a3.93,3.93,0,0,1,.09,3.35,5.85,5.85,0,0,1-2.49,3,17.55,17.55,0,0,1-9.64,2.8c-2.31,0-4.7-.19-6.75-1.63a5.44,5.44,0,0,1-2.24-3.25,39.84,39.84,0,0,1-.67-5.19c-.21-1.66-.64-3.28-1-4.92,0-.06-.08-.12-.12-.19s-.14.08-.18.14a.55.55,0,0,0-.1.22c-.34,1.95-.67,3.92-1,5.87s-.67,3.67-1.12,5.47a4.66,4.66,0,0,1-3.59,3.2,16.24,16.24,0,0,1-8.64.09,14.67,14.67,0,0,1-6.06-2.88,9.41,9.41,0,0,1-1.57-1.92,3.59,3.59,0,0,1-.19-3.76c.62-1.36.59-1.4-.94-1.41a48.23,48.23,0,0,0-9.3.64c-2,.37-4.06.52-6,1-2.72.74-5.37,1.73-8,2.65-.27.09-.48.38-.72.57a2.6,2.6,0,0,0,.64.49c2.51.84,2.92,4.3,1.8,6.34a14.46,14.46,0,0,1-5.74,5.42,15.88,15.88,0,0,1-6.41,2.19,7.92,7.92,0,0,1-4.87-.81c-1.08-.6-2.29-1-3.3-1.67a19.06,19.06,0,0,1-6-6.64c-1.81-3.23-3.21-6.64-4.71-10a1,1,0,0,1,.32-1.43c1.68-1.33,3.28-2.79,5.05-4,2.43-1.67,5-3.15,7.48-4.7a76.66,76.66,0,0,1,13-6.22,70.39,70.39,0,0,1,18-4.38,91.72,91.72,0,0,1,11.34-.82,64.32,64.32,0,0,1,14.22,1.79c1.51.36,3,.83,4.52,1.17a1.51,1.51,0,0,1,1.33,1.45c.16,1.46.32,2.93.49,4.39a5.54,5.54,0,0,0,.12.71c0,.1.13.18.19.27a1.34,1.34,0,0,0,.15-.29c.1-.63.2-1.26.28-1.9.13-1.14.28-2.29.36-3.44a1.48,1.48,0,0,1,1.3-1.49c4-.76,8-1.62,12-2.21a74.38,74.38,0,0,1,9.3-.73c2.91-.06,5.83.23,8.74.4a64.56,64.56,0,0,1,13.3,2.32,75.19,75.19,0,0,1,17.6,7.35A65.39,65.39,0,0,1,203,205c.54.47,1.07.95,1.65,1.37a2.06,2.06,0,0,1,.81,2.19,36.52,36.52,0,0,1-2.3,9c-1.2,3-2.85,5.73-6,7.18-1.7.79-3.39,1.59-5.13,2.29a9,9,0,0,1-5.06.28,12.28,12.28,0,0,1-4.34-1.26c-1.52-.93-3-1.92-4.51-2.88a2.83,2.83,0,0,0-.28-.23c-.21-.09-.44-.14-.65-.21a2.37,2.37,0,0,0-.21.74c.07,1.43.27,2.86.27,4.29A68.56,68.56,0,0,1,176,239.88c-.11.63-.18,1.26-.3,1.89a2,2,0,0,1-1.46,1.6c-3.78,1.25-7.53,2.59-11.35,3.7a108.82,108.82,0,0,1-12.15,2.57,120.86,120.86,0,0,1-13.8,1.43C135.9,251.12,134.86,251.08,133.82,251.08Zm23.26-29.9.81.11-1.27.89c-.87.07-1.12.33-.9,1-.25.59-.14,1,.53,1.18a10.64,10.64,0,0,0,2.34.41,19.44,19.44,0,0,0,10.52-3.12,8.82,8.82,0,0,0,2-1.83c.73-.89.5-1.41-.59-1.7-.31-.08-.63-.11-1-.17a22.27,22.27,0,0,0-3-.26,18.68,18.68,0,0,0-7.73,2.33,14.44,14.44,0,0,0-1.73,1.2l-.47.34.17.13C156.9,221.5,157,221.34,157.08,221.18ZM111.3,210.5v0c-.32.15-.66.28-1,.46-1.14.69-1.34,1.49-.43,2.44a9.85,9.85,0,0,0,2.36,1.8,14.61,14.61,0,0,0,8.46,1.63,3.77,3.77,0,0,0,3.09-1.31,1.58,1.58,0,0,0-.09-2.55,12.56,12.56,0,0,0-9.95-3.08,17,17,0,0,0-2.17.51ZM109,223.62a1.41,1.41,0,0,0-.81-1.7c-.41-.23-.77-.56-1.19-.78a22.2,22.2,0,0,0-11.15-2.51c-.94,0-2.08-.11-2.88.73l-.54.25c-1.11.53-1.17.9-.21,1.68a9.94,9.94,0,0,0,1.57,1.08,22.24,22.24,0,0,0,10.75,2.35A7.63,7.63,0,0,0,109,223.62Zm79.27,1.27h.11l1.12-.07a1.9,1.9,0,0,0,2.17-.77c.39-.65,0-1.22-.31-1.77-.09-.13-.15-.28-.25-.4-2.36-2.87-5.08-5.17-8.94-5.64a21,21,0,0,0-2.73-.17,1.63,1.63,0,0,0-1.46,2.54,6,6,0,0,0,.91,1.39A14,14,0,0,0,188.23,224.89ZM146.48,209.8a4.6,4.6,0,0,0-1.44-.38,48.77,48.77,0,0,0-5.8.65,8.68,8.68,0,0,0-4.73,2.59,1.46,1.46,0,0,0-.39,1.75c.32.63.79,1.1,1.62.83a7.23,7.23,0,0,0,1.73.92,15.07,15.07,0,0,0,7.54-.42,9.76,9.76,0,0,0,4.52-2.54,1.44,1.44,0,0,0-.38-2.53c-.38-.21-.79-.38-1.18-.57l-.26,0ZM70.1,221.22a8.83,8.83,0,0,0-1.67,2.43,1.24,1.24,0,0,0,.49,1.68c.4.27.9.64,1.32,0a10.31,10.31,0,0,0,2.11.26A13.23,13.23,0,0,0,81.88,220a4.45,4.45,0,0,0,.53-1.07c.48-1.29.11-2-1.28-2.21a8,8,0,0,0-2,0,15.76,15.76,0,0,0-1.64.31A16.77,16.77,0,0,0,74,218.23m58.57,30.45a120.88,120.88,0,0,0,27.19-3.35,100.7,100.7,0,0,0,12.59-3.9,1.72,1.72,0,0,0,1.23-1.56c.38-3,.93-6,1.17-9a38.61,38.61,0,0,0-.13-6.45c-.12-1.48-.41-1.54-1.77-.94a103.8,103.8,0,0,1-16.56,5.61A106.75,106.75,0,0,1,124.21,232a111.92,111.92,0,0,1-24.51-4.22c-3.41-1-6.74-2.27-10.12-3.38a1.58,1.58,0,0,0-1.29.06c-1.88,1.79-3.52,3.79-3.59,6.54a15.19,15.19,0,0,0,1,6,4.63,4.63,0,0,0,2.85,3c3.22,1.09,6.34,2.46,9.57,3.5A111.57,111.57,0,0,0,132.6,248.68Zm19.14-42a70.69,70.69,0,0,1,13.87.58c6,.8,11.92,2.07,17.35,4.88,4.62,2.39,9.18,5,11.69,9.89.35.69.83.69,1.49.42a7.58,7.58,0,0,0,3.28-3.23,26.5,26.5,0,0,0,3.43-9.65,1.94,1.94,0,0,0-.67-2,61.79,61.79,0,0,0-8.37-6.4,71.73,71.73,0,0,0-32.65-10.93,77.07,77.07,0,0,0-17.83.48c-3.12.45-6.2,1.15-9.31,1.72-.76.14-1.19.45-1.21,1.32,0,1.23-.2,2.46-.3,3.7a38.67,38.67,0,0,0,.44,9.67c.18,1,.25,1,1.27.87l1.3-.19c2.45-.38,4.88-.92,7.35-1.07C145.81,206.57,148.78,206.71,151.74,206.71Zm-46.31-16.48c-1.29.09-3.65.15-6,.41a80.06,80.06,0,0,0-27.3,8.21A85.3,85.3,0,0,0,57,208.46a1.09,1.09,0,0,0-.37,1.61c1.39,2.66,2.61,5.4,4.11,8A34.83,34.83,0,0,0,64,222.31c.41.5.85.42,1.31-.06,1.08-1.12,2.16-2.24,3.31-3.28a44.93,44.93,0,0,1,13.1-8.06c9.51-3.93,19.46-5,29.63-4.45A66.73,66.73,0,0,1,125,208.31c.76.2,1.08,0,1.22-.81a48.05,48.05,0,0,0,.18-12.9c0-.17-.17-.32-.27-.48a2.21,2.21,0,0,0-.43.37c-.36.58-.69,1.17-1,1.76-1.2,2.07-2.42,4.14-3.61,6.22-.47.81-.45.84.5,1.08.5.13,1,.23,1.53.32a.72.72,0,0,1,.68.92c-.08.62-.5.63-1,.54-1.26-.24-2.52-.47-3.77-.72-1.05-.21-1.1-.3-.56-1.23,1.4-2.42,2.81-4.83,4.23-7.25.93-1.58.93-1.55-.9-2-.54-.13-1.43.06-1.35-1,.06-.68.36-.78,1.63-.55s2.27.45,3.41.66a1.84,1.84,0,0,0,.51-.07,2.3,2.3,0,0,0-.43-.34,1.86,1.86,0,0,0-.46-.13A71.33,71.33,0,0,0,105.43,190.23Z"/><path class="site-logo-cls-6" d="M138.22,246.6c-2.23.09-2.05.23-2.17-1.63-.2-3.11-.37-6.22-.53-9.33-.06-1.24,0-1.28,1.22-1.36.75-.05,1.51-.06,2.27-.1.54,0,1,0,1,.72s-.36.7-.84.77c-1.75.25-1.75.26-1.72,2,0,.24,0,.48,0,.72,0,.6.27.89.88.84l1.2,0a.65.65,0,0,1,.77.7c0,.49-.17.75-.66.79h-.12c-2,.32-2,.32-1.8,2.31v.12c.18,1.83.18,1.85,2,1.88.5,0,.87.08.89.68s-.26.78-.8.79S138.56,246.57,138.22,246.6Z"/><path class="site-logo-cls-6" d="M160.21,204.82c-2.49-.21-2.51.44-2.26-2.69.22-2.9.49-5.8.69-8.71.06-.85.4-1.1,1.21-1s1.67.14,2.51.21c.52,0,.79.28.76.84s-.41.68-.89.67c-1.82,0-1.82,0-2,1.85,0,.24,0,.48-.07.71-.06.53.14.85.71.87s.87.08,1.31.11.68.3.64.79a.64.64,0,0,1-.78.68h-.11c-1.94,0-1.94,0-2.1,1.89,0,.16,0,.32,0,.48-.08,1.7-.08,1.72,1.64,1.87.58.05.9.23.89.85s-.5.71-1,.67Z"/><path class="site-logo-cls-6" d="M159.77,234.89a4.09,4.09,0,0,1-1,2,.84.84,0,0,0,0,1.24c.86,1.1,1.71,2.21,2.53,3.34.2.28.45.73.36,1-.15.41-1.39.49-1.74.17a4.85,4.85,0,0,1-.6-.74c-.77-1-1.52-2.05-2.3-3.07a2.49,2.49,0,0,0-.53-.43,2.44,2.44,0,0,0,0,.66c.3,1.2.6,2.4.93,3.59.18.64.13,1.07-.63,1.25s-1-.28-1.12-.88c-.86-3.32-1.73-6.65-2.63-10-.18-.67,0-1,.64-1.12s1.15-.33,1.73-.47C157.77,230.88,159.64,232.41,159.77,234.89Zm-2.05.31c0-1.57-.84-2.39-1.91-2.24-.53.07-.78.32-.64.88s.32,1.31.5,2c.23.82.57,1,1.26.42A4.55,4.55,0,0,0,157.72,235.2Z"/><path class="site-logo-cls-6" d="M167.18,238.36a8.66,8.66,0,0,1,.2,1.57,1.26,1.26,0,0,1-.44.84c-.64.43-1,.25-1.13-.54-.25-1.41-.5-2.83-.73-4.25-.36-2.13-.67-4.26-1.07-6.38a.9.9,0,0,1,.64-1.19.92.92,0,0,1,1.32.36c2,3,4.06,6,6.09,9,.19.28.52.65,0,.89s-1,.71-1.51.12a5.79,5.79,0,0,1-.72-1.1c-.29-.56-.69-.58-1.2-.35a5.81,5.81,0,0,0-1,.43A2.26,2.26,0,0,0,167.18,238.36Zm1.08-2.42a.75.75,0,0,0,0-.7c-.63-1-1.26-2-1.9-3.05a1.24,1.24,0,0,0-.28-.19,1.32,1.32,0,0,0-.09.42c.2,1.14.39,2.28.65,3.41a.79.79,0,0,0,.63.45A3.06,3.06,0,0,0,168.26,235.94Z"/><path class="site-logo-cls-3" d="M126.73,193.9a54,54,0,0,1-.53,13.6c-.14.77-.46,1-1.22.81a66.73,66.73,0,0,0-13.64-1.85c-10.17-.53-20.12.52-29.63,4.45A44.93,44.93,0,0,0,68.61,219c-1.15,1-2.23,2.16-3.31,3.28-.46.48-.9.56-1.31.06a34.83,34.83,0,0,1-3.27-4.25c-1.5-2.59-2.72-5.33-4.11-8a1.09,1.09,0,0,1,.37-1.61,85.3,85.3,0,0,1,15.16-9.61,80.06,80.06,0,0,1,27.3-8.21c2.34-.26,4.7-.32,6-.41a71.33,71.33,0,0,1,19.66,2.53l.46.13c.52.16.88.13,1.08.58m-.67.38a.59.59,0,0,0-.49-.55c-1.14-.21-2.28-.45-3.41-.66s-1.57-.13-1.63.55c-.08,1,.81.83,1.35,1,1.83.43,1.83.4.9,2-1.42,2.42-2.83,4.83-4.23,7.25-.54.93-.49,1,.56,1.23,1.25.25,2.51.48,3.77.72.47.09.89.08,1-.54a.72.72,0,0,0-.68-.92c-.51-.09-1-.19-1.53-.32-1-.24-1-.27-.5-1.08,1.19-2.08,2.41-4.15,3.61-6.22.34-.59.67-1.18,1-1.76a4.16,4.16,0,0,0,.23-.42m-55.34,15,3.4,2.41a6.22,6.22,0,0,0,.58.43,1.42,1.42,0,0,0,1.77-.49c.31-.61-.34-.72-.63-1-.9-.72-1.85-1.39-2.78-2.08s-1-.78-.69-2a3.53,3.53,0,0,0-1.3-3.73,3,3,0,0,0-3.48-.18c-.56.31-1.09.67-1.65,1s-.63.72-.29,1.27c.61,1,1.19,2,1.79,3,1.18,2,2.38,4,3.54,6,.36.61.72.77,1.35.36s.49-.79.19-1.31c-.67-1.17-1.3-2.37-1.94-3.55ZM94.46,199c0-.09.08-.29.13-.49a2.93,2.93,0,0,1,.37.42c.22.38.42.77.62,1.16.6,1.17,1.22,2.33,1.78,3.52.36.74.92.63,1.53.5s.49-.68.42-1.13c-.19-1.3-.39-2.6-.61-3.9-.35-2.09-.72-4.17-1.06-6.25-.08-.54-.25-.93-.89-.86s-.88.41-.77,1.06c.26,1.57.5,3.15.74,4.72a5.58,5.58,0,0,1,0,.71,3.91,3.91,0,0,1-.5-.59c-.77-1.44-1.52-2.89-2.28-4.35-.47-.9-.75-1-1.58-.79s-.53.89-.46,1.36c.52,3.31,1.09,6.61,1.61,9.92.11.68.42.89,1,.83s.77-.5.66-1.11C94.94,202.21,94.72,200.67,94.46,199ZM68.87,215.48c0-.08,0-.16,0-.24-.16-2.45-3.83-7.49-6.1-8.36A2.77,2.77,0,0,0,59,209.6c.1,2.38,4,7.65,6.22,8.4A2.8,2.8,0,0,0,68.87,215.48Zm13.12-9A16.5,16.5,0,0,0,79,199.51c-1.16-1.65-2.51-2.06-3.9-1.41s-1.86,1.89-1.46,3.81a17.24,17.24,0,0,0,3.2,6.9,2.85,2.85,0,0,0,3.4,1C81.46,209.41,82,208.5,82,206.45Zm35.41-2.77c-.49-3.9-.94-7.59-1.41-11.27-.08-.59-.52-.73-1-.76a.94.94,0,0,0-1.1.81c-1,3.4-2.09,6.79-3.11,10.19-.08.27,0,.87.14.89a1.9,1.9,0,0,0,1.23-.09c.24-.13.29-.62.4-1,.35-1.16.35-1.16,1.58-1s1.3.14,1.43,1.5c0,.24,0,.61.1.69a2.93,2.93,0,0,0,1.2.5C117,204.17,117.27,203.79,117.4,203.68ZM105,197.33h0c0,1.84,0,3.67,0,5.51,0,.66.38.79.93.79s.92-.14.89-.82c0-.87.06-1.75,0-2.63s.29-1.25,1.11-1.31a2.48,2.48,0,0,0,2.06-1.45c1.69-3.2-.11-6.19-3.69-6.15h-.36c-.67-.05-.92.25-.9.92C105.05,193.9,105,195.62,105,197.33Zm-16-3.87c-1.28.36-2.37.62-3.42,1a1,1,0,0,0-.35.85c.89,3.44,1.83,6.86,2.74,10.29a.8.8,0,0,0,1.15.65l2.55-.69c.52-.14.87-.37.7-1s-.63-.56-1.13-.44c-1.91.45-1.56.69-2.2-1.34,0-.12,0-.24-.08-.35-.46-1.84-.46-1.84,1.3-2.49l.12,0c.5-.11.6-.42.5-.89a.63.63,0,0,0-.87-.55c-.47.11-.93.27-1.4.34-.2,0-.58-.06-.61-.17a10,10,0,0,1-.6-2.77c0-.26,1-.52,1.58-.78l.12,0c.43-.09.66-.36.47-.77S89.49,193.38,89,193.46Z"/><path class="site-logo-cls-6" d="M146.34,233.36A3,3,0,0,1,149.4,235a3.18,3.18,0,0,1-.3,3.81,1.33,1.33,0,0,0-.14,2c.67,1,1.28,2,1.85,3.07.19.33.4.91.24,1.11-.36.48-1.52.28-1.86-.24s-.74-1.23-1.11-1.85-.83-1.45-1.28-2.16c-.09-.14-.3-.2-.45-.29a1.82,1.82,0,0,0-.06.46c.17,1.26.33,2.53.54,3.78.11.68,0,1.06-.77,1.17s-.88-.28-1-.87q-.75-5.16-1.55-10.3c-.1-.64.1-1,.77-1.06S145.81,233.44,146.34,233.36Zm1.66,3.76c0-1.26-.71-2.12-1.53-2.18-.58-.05-1.05.05-.92.83.11.62.17,1.25.27,1.87.14.91.59,1.15,1.32.6A4.41,4.41,0,0,0,148,237.12Z"/><path class="site-logo-cls-6" d="M97.63,241.21l2-7.78.63-2.55c.11-.42.13-.92.78-.81s1.2.2,1.24,1c0,1.08.11,2.15.18,3.23,0,.8.13,1.59.2,2.39a2,2,0,0,0,.1.32c.1-.1.26-.18.3-.3.44-1.66.89-3.31,1.3-5,.17-.72.55-.74,1.15-.56s.55.67.43,1.15L104,240.12c-.18.7-.31,1.41-.51,2.1-.14.48-.22,1.06-1,.94s-1.08-.36-1.1-1.15c0-1.47-.16-2.94-.26-4.42a3.37,3.37,0,0,0-.09-.71,3.54,3.54,0,0,0-.3-.66c-.08.21-.18.42-.24.63-.4,1.55-.81,3.09-1.18,4.64a.7.7,0,0,1-1,.58C97.88,242,97.49,241.81,97.63,241.21Z"/><path class="site-logo-cls-6" d="M105,195.8c0-1.71.06-1.9,0-3.61,0-.67.23-1,.9-.92h.36c3.58,0,5.38,2.95,3.69,6.15a2.48,2.48,0,0,1-2.06,1.45c-.82.06-1.18.45-1.11,1.31s0,1.76,0,2.63c0,.68-.34.81-.89.82s-.94-.13-.93-.79c0-1.84,0-3.67,0-5.51C105,197.33,105,195.8,105,195.8Zm1.8-.62h0c0,.51,0,1,0,1.55,0,.67.36.82.94.48,1.15-.66,1.13-3.42,0-4.11-.56-.33-.87-.17-.92.52C106.76,194.14,106.79,194.66,106.79,195.18Z"/><path class="site-logo-cls-6" d="M117.4,203.68c-.13.11-.38.49-.59.47a2.93,2.93,0,0,1-1.2-.5c-.13-.08-.08-.45-.1-.69-.13-1.36-.13-1.36-1.43-1.5s-1.23-.13-1.58,1c-.11.34-.16.83-.4,1a1.9,1.9,0,0,1-1.23.09c-.11,0-.22-.62-.14-.89,1-3.4,2.09-6.79,3.11-10.19a.94.94,0,0,1,1.1-.81c.53,0,1,.17,1,.76C116.46,196.09,116.91,199.78,117.4,203.68Zm-2.19-4.18c-.15-1.3-.27-2.41-.4-3.51a2.08,2.08,0,0,0-.15-.39,1.47,1.47,0,0,0-.25.38c-.33,1.07-.66,2.13-1,3.21a1,1,0,0,0,0,.63A5.64,5.64,0,0,0,115,200C115.24,200,115.2,199.68,115.21,199.5Z"/><path class="site-logo-cls-7" d="M111.18,146.43s-2.51.43-3.73-1.15a20.55,20.55,0,0,1-2.16-5,43,43,0,0,1-7.83,1.94c-4.54.59-9.93,0-16-1.15-4.13-.81-15.95-6-16.35-6.18-1-.37-2.5.8-2,2a10.67,10.67,0,0,0,3.67,4.2c1.52,1.2,4.54,3.07,4.54,3.07s-1,2-.25,3.06c1.43,2,6,4,6,4a2.74,2.74,0,0,0-1.43,1.17,2.38,2.38,0,0,0,.74,2.32,14.37,14.37,0,0,0,4.37,3c1,.43,3.45,1.58,4.32,1.86s-.49.49-1.75.78-2.5.4-2.62,1.14.09,1.35,1.56,2.15a19.08,19.08,0,0,0,3.47,1.3c1.37.41,2,.64,2.64.81.32.09-1.88.68-2.59.87-1,.26-1,1.24.58,2a32.64,32.64,0,0,0,8.19,2.44c1.63.23,9.06.15,10.35.15a17.62,17.62,0,0,0,4.89-1.08c.72-.36-.54-6.24-.58-8.27a80.91,80.91,0,0,1,.43-8.48C110,151.29,111.18,146.43,111.18,146.43Z"/><path class="site-logo-cls-8" d="M105.33,140.54s-1.15-5.32-1.44-7.19,0-4.7-2.3-7.33c-2.45-2.85-27.45-16.53-30.62-18.11S53.58,97.27,52.43,96.41,38.06,84.77,38.06,84.77a6.64,6.64,0,0,0-.29,4.45c.48,1.43,4.94,7.15,5.46,7.91.35.5-1.22,1.19-1.24,2.33,0,1.75,1.75,4.22,2.75,5.52s5,5.8,5.25,6.24-.84,1.4-.84,2.33c0,1.9,2.85,4.78,4,5.93s4.16,3.82,4.89,4.38c.36.29-1.66.65-1.3,2A12.11,12.11,0,0,0,59.93,131c1.39,1.49,2.41,2.16,5.44,3.92a116.85,116.85,0,0,0,16.12,6.12,56.52,56.52,0,0,0,15.56,1.23C99.05,142.07,105.33,140.54,105.33,140.54Z"/><path class="site-logo-cls-9" d="M96.71,142.34s.28-6.12-1.59-9.28S82.47,124.29,80.32,123s-14.89-8.14-17-9.49c-3.61-2.35-12.22-9.48-14-10.92s-5.65-4.84-6.18-5.46"/><path class="site-logo-cls-9" d="M71,107.91a26.32,26.32,0,0,0,.58,5.75,24.58,24.58,0,0,0,3,6.08"/><path class="site-logo-cls-9" d="M70.31,124.88A30.8,30.8,0,0,1,68,120.2a28.55,28.55,0,0,1-1.15-4.38"/><path class="site-logo-cls-9" d="M96.22,137s-12.74-5.67-14-6.25-10.44-4.95-10.86-5.24c-.71-.51-10.31-6.06-13.86-8.41A70.37,70.37,0,0,1,49.83,111"/><path class="site-logo-cls-9" d="M69.43,124.27a23.3,23.3,0,0,0,1.4,4.66,18.75,18.75,0,0,0,2.59,4.49"/><path class="site-logo-cls-9" d="M96.47,141.44s-13.13-4.07-14.57-4.57-8.7-3.38-10-4-6-3.1-7.84-4.31-5.68-4.38-6-4.67"/><path class="site-logo-cls-9" d="M70.62,132.2a29.81,29.81,0,0,0,.7,3,17.48,17.48,0,0,0,2.1,3.92"/><path class="site-logo-cls-9" d="M96.7,142.33s.51,4.46,1.87,6.69a10.78,10.78,0,0,0,4,3.85,12.86,12.86,0,0,0,7.08,2"/><path class="site-logo-cls-9" d="M97.39,146.09c-1.63.25-10.28-.62-12.41-1.22-2.31-.64-9.31-2.55-12.45-6.7"/><path class="site-logo-cls-9" d="M99.32,150.24a28,28,0,0,1-11.52.12,62.38,62.38,0,0,1-11-3.43c-1.58-.64-5.41-2.75-5.41-2.75"/><path class="site-logo-cls-9" d="M105.24,154.34a54.9,54.9,0,0,1-9,1.8,27.37,27.37,0,0,1-9.15-.53c-2.49-.49-8.34-3.35-9.92-4.29"/><path class="site-logo-cls-9" d="M109.3,159.74a74.31,74.31,0,0,1-9.31,2.08,30.32,30.32,0,0,1-10.19-.66,36.74,36.74,0,0,1-4.45-1.42"/><path class="site-logo-cls-9" d="M109.42,164.61a67.36,67.36,0,0,1-7.54,1.8,36.13,36.13,0,0,1-8.57.18,49.36,49.36,0,0,1-5.71-1"/><path class="site-logo-cls-7" d="M148.24,147.41s2.51.43,3.74-1.15a21,21,0,0,0,2.16-5,43,43,0,0,0,7.83,1.94c4.53.59,9.92,0,16-1.15,4.13-.81,15.95-6,16.35-6.18,1-.37,2.51.8,2,2a10.79,10.79,0,0,1-3.68,4.2c-1.51,1.2-4.53,3.07-4.53,3.07s1,2,.24,3.06c-1.43,2-6,4-6,4a2.7,2.7,0,0,1,1.43,1.17,2.38,2.38,0,0,1-.74,2.32,14.25,14.25,0,0,1-4.37,3c-1,.43-3.45,1.58-4.31,1.86s.48.49,1.74.78,2.5.4,2.62,1.14-.09,1.35-1.56,2.15a19.08,19.08,0,0,1-3.47,1.3c-1.36.41-2,.64-2.64.81-.32.09,1.88.68,2.59.87,1,.26,1,1.24-.58,2a32.52,32.52,0,0,1-8.19,2.44c-1.62.23-9.06.15-10.35.15a17.62,17.62,0,0,1-4.89-1.08c-.71-.36.55-6.24.58-8.27a78.28,78.28,0,0,0-.43-8.48C149.44,152.27,148.24,147.41,148.24,147.41Z"/><path class="site-logo-cls-8" d="M154.1,141.52s1.14-5.32,1.43-7.19,0-4.7,2.3-7.33c2.45-2.85,27.46-16.53,30.62-18.11S205.84,98.25,207,97.39s14.37-11.64,14.37-11.64a6.64,6.64,0,0,1,.29,4.45c-.48,1.42-4.94,7.15-5.46,7.91-.35.5,1.22,1.19,1.25,2.33,0,1.75-1.75,4.22-2.76,5.52s-5,5.8-5.25,6.24.84,1.4.84,2.33c0,1.9-2.85,4.78-4,5.93s-4.16,3.82-4.89,4.38c-.36.29,1.66.65,1.3,2a12.11,12.11,0,0,1-3.19,5.14c-1.39,1.49-2.41,2.16-5.44,3.92A116.85,116.85,0,0,1,177.93,142a56.89,56.89,0,0,1-15.56,1.23C160.37,143.05,154.1,141.52,154.1,141.52Z"/><path class="site-logo-cls-9" d="M162.71,143.32s-.28-6.12,1.59-9.28S177,125.27,179.11,124s14.88-8.14,16.95-9.49c3.61-2.35,12.22-9.48,13.95-10.92s5.65-4.84,6.18-5.46"/><path class="site-logo-cls-9" d="M188.45,108.89a26.32,26.32,0,0,1-.58,5.75,24.58,24.58,0,0,1-3,6.08"/><path class="site-logo-cls-9" d="M189.11,125.86a30.15,30.15,0,0,0,2.36-4.68,28.56,28.56,0,0,0,1.15-4.39"/><path class="site-logo-cls-9" d="M163.2,138s12.74-5.67,14-6.25,10.44-5,10.86-5.24c.71-.51,10.31-6.06,13.87-8.41A71.36,71.36,0,0,0,209.6,112"/><path class="site-logo-cls-9" d="M190,125.25a23.7,23.7,0,0,1-1.41,4.66A18.75,18.75,0,0,1,186,134.4"/><path class="site-logo-cls-9" d="M163,142.42s13.14-4.07,14.57-4.57,8.7-3.38,10-4,6-3.1,7.84-4.31,5.68-4.38,6-4.67"/><path class="site-logo-cls-9" d="M188.81,133.18a30.31,30.31,0,0,1-.71,3,17.05,17.05,0,0,1-2.1,3.92"/><path class="site-logo-cls-9" d="M162.72,143.31s-.5,4.46-1.87,6.69a10.78,10.78,0,0,1-4,3.85,12.86,12.86,0,0,1-7.08,2"/><path class="site-logo-cls-9" d="M162,147.07c1.63.25,10.28-.62,12.41-1.22,2.31-.64,9.32-2.55,12.46-6.69"/><path class="site-logo-cls-9" d="M160.11,151.22a28,28,0,0,0,11.51.12,62.84,62.84,0,0,0,11-3.43c1.58-.64,5.4-2.75,5.4-2.75"/><path class="site-logo-cls-9" d="M154.19,155.32a54.93,54.93,0,0,0,9,1.8,27.32,27.32,0,0,0,9.15-.53c2.49-.49,8.34-3.35,9.92-4.29"/><path class="site-logo-cls-9" d="M150.12,160.71a73.57,73.57,0,0,0,9.31,2.09,30.32,30.32,0,0,0,10.19-.66,35,35,0,0,0,4.45-1.43"/><path class="site-logo-cls-9" d="M150,165.59a67.14,67.14,0,0,0,7.55,1.8,36.05,36.05,0,0,0,8.56.18,49.36,49.36,0,0,0,5.71-1"/><path class="site-logo-cls-10" d="M114.71,106.66a4.27,4.27,0,0,1,4.17-2.66c2.16,0,6.4,3.45,6.4,3.45s1.35-2.73,3.81-2.58,6.23,2.72,7.51,4.16a13.45,13.45,0,0,1,2.87,5.81,18.14,18.14,0,0,1,.64,4.9,17.57,17.57,0,0,1-.39,3.36,24.73,24.73,0,0,0,1.51,5.45c.59,1.61,1.64,4.25,2.64,6.41s2.24,6,3.13,8.69c.64,1.89,1,3.59,1.59,6s1.06,7.36,1.35,9.23.28,7.83-.16,8.55-1.27-.2-4.13.29a12.6,12.6,0,0,0-3.48,1.15l-.58-3.17s-.14-3.73-.29-4.31-1.72.58-3,1.15-4,1.44-4.31,1.87-.85-1.42-2-3.2-2.15-2.84-2.58-3.7-2.3,1-3.16,2.3-1.58,2.59-2.16,3.59a3,3,0,0,1-1.29,1.3s-5-3.79-6.16-3.94-1.55,3.47-1.4,4.05.52,4.06.52,4.06-4.31-.87-5.75-1-4.81,1.27-6.28,1.58-3.46,1.92-4.07-.57c-.23-.93,1.72-6.33,2.44-8.34s3.11-8.19,3.74-9.49a78.47,78.47,0,0,1,4-7.85c1.24-1.9,3.43-4.83,4.18-6s3.43-5.87,3.88-7a38,38,0,0,0,1.42-4.31c.43-1.52.81-2.69,1.17-3.88.3-1-.37-2.06-.72-2.73-.48-.94-.84-1.58-1.28-2.32-.58-1-1.53-2.19-.86-3.34.35-.59,1,.47,1.38.89a3.71,3.71,0,0,0,4.36,1c.27-.12-1-2.16-1.49-3.13a10.48,10.48,0,0,0-3-3.51c-1.86-1-3.52,1.43-3.59,1.47C114.3,110.8,114.14,108,114.71,106.66Z"/><path class="site-logo-cls-11" d="M127.88,111.42a7.7,7.7,0,0,1,2.86-1.08,2.17,2.17,0,0,1,1.78.92.94.94,0,0,1,.13.76c0,.09-.35.48-.67.26"/><path class="site-logo-cls-12" d="M132.22,112.43c0,.61-.78,1.1-1.74,1.1s-1.74-.49-1.74-1.1.78-1.09,1.74-1.09S132.22,111.83,132.22,112.43Z"/><path class="site-logo-cls-3" d="M131.87,112.15a.72.72,0,1,1-.71-.62A.67.67,0,0,1,131.87,112.15Z"/><path class="site-logo-cls-13" d="M125.35,107.31s.89,5.1.36,7.33a6.88,6.88,0,0,1-1.93,3.81,35.35,35.35,0,0,1-3.3,3"/><path class="site-logo-cls-14" d="M102.78,158.62s4.46-11.93,5.46-13.22,3.16-4.78,3.88-5.36,5-3,5-3-.24,1.82-.3,2.62c0,.61-.27,3.15-.27,3.15l5.42-4.49.9,4.41,3.84-3.43,2.79,3.82,3.25-4.23,4.5,3.71,2.69-5.51,5.64,3.55s1.72,4.31,2.3,5.89a36.31,36.31,0,0,1,1,5.6l-2.3,10.5-41.11-2.16Z"/><polyline class="site-logo-cls-13" points="106.3 149.78 112 145.81 116.25 143.2 114.93 148.6 114.5 154.52 119.19 148.34 122.91 143.07 124.09 150.75 125.39 157 128.35 148.97 129.73 144.09 132.55 148 134.75 158.14 137.07 152.63 137.5 143.78 141.98 152.38 145.69 141.03"/><line class="site-logo-cls-15" x1="111.35" y1="146.42" x2="111.35" y2="151.36"/><path class="site-logo-cls-16" d="M102.32,159.81s2.58-3.67,3.82-5a47.6,47.6,0,0,1,4.8-3.88c.27-.27.43.65.43.65a7.25,7.25,0,0,1,1.73-2.26,15.8,15.8,0,0,1,1.83-1.14,15.79,15.79,0,0,1,.21,2.43c0,.7-.27,2.43-.27,2.59a26.75,26.75,0,0,1,2.11-3c.86-.81,2.21-1.83,2.21-1.83s0,3.77-.11,4.74-.27,3.61-.33,3.88,1.52-3.34,2.48-4.37a10.46,10.46,0,0,1,2.86-1.83,13.13,13.13,0,0,1,.38,2.32c-.06.54-.06,3.45-.06,3.45s1.62-4.31,2.16-5.28a14.72,14.72,0,0,1,1.78-2.27,13.2,13.2,0,0,1,1.35,1.89,22.17,22.17,0,0,1,.59,2.26,29.45,29.45,0,0,1,.92-3.34,9.4,9.4,0,0,1,1.34-1.78,7,7,0,0,1,1.57,3.51c.11,1,.43,4.15.43,4.15A15,15,0,0,1,136,153a6.74,6.74,0,0,1,1-.81,10.53,10.53,0,0,1,.88,2.65c.11.8.58,3.5.63,4.2s.92-3.51,1.46-4.48a6.47,6.47,0,0,1,2-1.83s1.08,2.91,1.19,3.51,1.18,3.93,1.18,3.93.92-5,1.24-6.25a7.67,7.67,0,0,1,1.19-2.59,12.57,12.57,0,0,1,1.62-1.56,12.64,12.64,0,0,1,1,3.51c.13,1.2.69,5.92.7,7.81a48.72,48.72,0,0,1-.38,6.73c-.21.92-20.86,3.51-20.86,3.51l-28.61-.9L99.7,169a40.18,40.18,0,0,1,1-5C101.21,162.42,102.32,159.81,102.32,159.81Z"/><path class="site-logo-cls-17" d="M111.27,151.65s-2.49,5.73-3.24,7.51-2.32,5.11-2.76,6.38-1.55,4-1.55,4.13"/><path class="site-logo-cls-17" d="M114.87,153.18s-2.37,6.09-2.74,7.17-1.43,3.84-2,5.55c-.29.89-1.42,4.25-1.48,4.41"/><path class="site-logo-cls-17" d="M118.75,156.74s-.43,3.07-.59,4.15-1.08,9.21-1.08,9.43"/><path class="site-logo-cls-17" d="M124.58,156.14s-1,5.23-1.35,6.86-1.13,7.48-1.19,7.8"/><path class="site-logo-cls-17" d="M130.29,153.39s.05,5.18.05,5.61.17,12.07.17,12.07"/><path class="site-logo-cls-17" d="M134.55,155.66s-.46,5.74-.46,6.81-.24,7.9-.24,7.9"/><line class="site-logo-cls-18" x1="138.5" y1="158.27" x2="138.91" y2="169.56"/><path class="site-logo-cls-17" d="M144.2,159.32s1.18,5.88,1.34,6.63.54,2.59.54,2.59"/><path class="site-logo-cls-3" d="M164.52,184.27a4.21,4.21,0,0,0,3.37-1.87c.84-1.32,1.91-3.08,1.91-3.08s-2.25-.9-3.32-1.49c-.54-.29-1-.56-2.07-1.1-.68-.33-2.26-1.18-2.26-1.18l2.58-2.16a6.48,6.48,0,0,0-3.77-1.51c-1.3,0-3.56.11-3.88.11s.75-3.34.75-3.34a18.06,18.06,0,0,0-4.31-1c-2.33-.17-3.76-.17-4.19-.17a23.94,23.94,0,0,0-5.19.38,10.82,10.82,0,0,0-2,.94l-.87-7.48a38.13,38.13,0,0,0-4.27,1.26c-.87.43-3.06,1.76-3.06,1.76s-2.66-3.92-2.87-4.35-2.27-2.8-2.27-2.8-2.69,2.8-3,3.34-2.7,4.1-2.7,4.1a35.84,35.84,0,0,0-3.56-2.48c-.75-.32-3.34-1.51-3.34-1.51a14.71,14.71,0,0,0-1,4.1c0,.86.52,4.06.52,4.06a64.57,64.57,0,0,0-7.26-1.15c-1.72,0-9.27,1.4-9.27,1.4l.75,2.26a35.63,35.63,0,0,1-3.6,0,15.89,15.89,0,0,0-2.26-.26,1.89,1.89,0,0,1,.65,1.43c0,.85-.49,1.05-1.23,1.43s-.72.18-3.8,2.41a22.48,22.48,0,0,0-2.39,2.14,19.13,19.13,0,0,0-1.49,2.29c-.21.32,4.29,1.17,5,1.51a10.07,10.07,0,0,1,3.51,2.87c.54.65,11.07-4.27,11.4-4.27s26.19-7.87,27-7.87,17.35,3.88,18,4.2,8.73,6.68,9.16,6.79S164.52,184.27,164.52,184.27Z"/><path class="site-logo-cls-19" d="M161.07,182.12s1.66-1.85,2.15-2.23-8.41-2-8.76-2.15a10.4,10.4,0,0,1,2.35-2.54,7,7,0,0,0-4-.67c-1.52.15-4.05.62-4.05.62l.72-3.81a30.63,30.63,0,0,0-5.18.58,30.45,30.45,0,0,0-5.1,1.94s-.45-6.61-.52-7.27a5.37,5.37,0,0,0-3.19,1.06,17.12,17.12,0,0,0-2,3s-1.89-3.7-2.56-4.79a21.83,21.83,0,0,0-2.18-2.61,12.29,12.29,0,0,0-2.67,2.92,28.14,28.14,0,0,0-1.5,4.19s-2.23-1.43-3.16-1.93-3-1.44-3-1.44-.22,2.74-.14,3.51c.1,1,.43,3.1.43,3.1s-3.09-.79-5-1.15a67.64,67.64,0,0,0-6.76-.5l2.73,3.09a26,26,0,0,1-4.06.44c-.88,0-5.14.06-5.14.06s1.06,1.91,1.23,2.23a26.55,26.55,0,0,1-3.67.36,17,17,0,0,0-4.74,1.36c-.09.06,5.15,2.39,5.33,2.5,5.06,3.13,31,2.32,31,2.32l28.71.64Z"/><path class="site-logo-cls-3" d="M108.75,182c.07.79-3.84,4.65-4.88,5.69,0,0-2.53.25-6.75.72-2.08.24-5.13.74-5.13.74-.08-1.36,1.18-2.59,1.38-2.89a22.83,22.83,0,0,1,4.2-4.2,25.1,25.1,0,0,1,7.07-2,4.75,4.75,0,0,1,1.66.05C107.13,180.36,108.68,181.24,108.75,182Z"/><path class="site-logo-cls-6" d="M150.86,187.25c0-1.09,3.15-3,5-3.62a10.33,10.33,0,0,1,5-.72c1.91.33,4.07,1,4.85,1.72,1.12,1,1.3,2.45,1.19,4.28s-1,.46-2.79.24c-2-.25-2.69,0-4.42-.25s-3.91.16-5.58-.25S150.84,188.3,150.86,187.25Z"/><path class="site-logo-cls-6" d="M120.77,179.46a2.21,2.21,0,0,0-1.41-1.58,11.77,11.77,0,0,0-4.54.15,10.86,10.86,0,0,0-3.77,1.43c-1,.72-4.1,4.71-4.6,5.36s-2.32,2.6-2.61,2.93,4.5.93,6,.77c1.69-.18,4.21-.94,5.11-1.76A61.63,61.63,0,0,0,120.77,179.46Z"/><path class="site-logo-cls-3" d="M132,179.58c0-.54-2-2.13-3.61-2.19a9.8,9.8,0,0,0-4.54.56,12.29,12.29,0,0,0-3.56,2,41.66,41.66,0,0,0-2.63,3.67c-.75,1-2.28,2.73-2.67,3.16s4.29.54,4.29.54a19.91,19.91,0,0,0,4.74-.79,12.2,12.2,0,0,0,2.92-1.26,12.91,12.91,0,0,0,3.37-3.13C130.85,181.4,132,180.12,132,179.58Z"/><path class="site-logo-cls-6" d="M144.06,180.44a5.68,5.68,0,0,0-2.36-2.2,13.53,13.53,0,0,0-4.85-.61,9,9,0,0,0-4.38,1.29c-.71.49-2.66,3.67-3.67,4.75a11.65,11.65,0,0,1-2.4,1.85,15,15,0,0,0,4.63,1.6,12.34,12.34,0,0,0,6.36-1.44C138.83,184.67,140.18,182.66,144.06,180.44Z"/><path class="site-logo-cls-3" d="M155.45,183.79a8.82,8.82,0,0,0-3.09-3.28,6.71,6.71,0,0,0-4.26-.94,10.4,10.4,0,0,0-5.64,1.72,43,43,0,0,0-4.75,4.14,3.17,3.17,0,0,0-.33.29c0,.68,2.2,1.63,3.39,1.9a20.81,20.81,0,0,0,5.58.11c1.47-.18,3.31-.17,4.15-.58,1.22-.59,1-.86,2.3-1.87A12.37,12.37,0,0,1,155.45,183.79Z"/><path class="site-logo-cls-20" d="M119,127s2.45,3,3.86,4.93c1.5,2.09,4,6.7,4,6.7l3.2-5.73,2.67,5,3-6.74,4.25,5.56,2.28-5.68"/><path class="site-logo-cls-20" d="M117.3,137.06s2.76-2.37,5.81-5.1c1.28-1.15,4.65-6.38,4.65-6.38l2.33,1.65,3.27-6.07,7.33,6.2"/><polyline class="site-logo-cls-20" points="130.07 133.02 129.97 127.36 135.73 130.59 140.23 127.21"/><line class="site-logo-cls-15" x1="143.88" y1="147.03" x2="148.35" y2="149.73"/><line class="site-logo-cls-15" x1="122.93" y1="132.39" x2="122.01" y2="138.39"/><path class="site-logo-cls-6" d="M89,193.46c.53-.16.43.48.57.79s0,.68-.47.77l-.12,0c-.55.26-1.59.52-1.58.78a10,10,0,0,0,.6,2.77c0,.11.41.2.61.17.47-.07.93-.23,1.4-.34a.63.63,0,0,1,.87.55c.1.47,0,.78-.5.89l-.12,0c-1.76.65-1.76.65-1.3,2.49,0,.11,0,.23.08.35.64,2,.29,1.79,2.2,1.34.5-.12,1-.23,1.13.44s-.18.87-.7,1l-2.55.69a.8.8,0,0,1-1.15-.65c-.91-3.43-1.85-6.85-2.74-10.29a1,1,0,0,1,.35-.85C86.64,194.08,87.73,193.82,89,193.46Z"/><path class="site-logo-cls-6" d="M185.64,200.14c-.09,2-1,3.29-2.49,3.71a.88.88,0,0,0-.79,1.07c.08,1.36.11,2.72.11,4.07,0,.41.31,1.06-.49,1.09a1.27,1.27,0,0,1-1.37-1.18c0-1.08,0-2.16,0-3.24,0-.43,0-.87,0-1.31,0-.13-.15-.26-.22-.39-.11.11-.28.2-.33.32-.45,1.15-.88,2.31-1.33,3.47-.18.46-.4.88-1,.67s-1-.45-.66-1.2c.6-1.44,1.11-2.91,1.66-4.37.65-1.72,1.31-3.43,2-5.15.44-1.16.45-1.16,1.64-.71a17.29,17.29,0,0,1,1.77.73A2.82,2.82,0,0,1,185.64,200.14ZM182,202.26a1.71,1.71,0,0,0,1.7-1.39,1.66,1.66,0,0,0-.82-1.92c-.44-.26-.76-.19-1,.27-.27.62-.51,1.25-.74,1.89C180.88,202,181.08,202.25,182,202.26Z"/><path class="site-logo-cls-6" d="M174.17,197.25a3.19,3.19,0,0,1-1.87,3.1c-.62.29-.79.57-.61,1.27.35,1.31.54,2.66.78,4,.07.39.41,1-.28,1-.54.06-1.26,0-1.5-.69a9.51,9.51,0,0,1-.28-1.41c-.19-1.06-.37-2.12-.59-3.17a1.88,1.88,0,0,0-.33-.58,2.53,2.53,0,0,0-.3.59c-.27,1.17-.54,2.34-.75,3.52-.1.6-.26,1-1,.83s-.9-.49-.75-1.19c.68-3.29,1.33-6.58,2-9.86.24-1.16.31-1.18,1.43-1,.51.1,1,.19,1.53.31A3,3,0,0,1,174.17,197.25ZM170.54,199a1.63,1.63,0,0,0,1.74-1.48,1.67,1.67,0,0,0-1-1.95c-.47-.19-.88-.18-1,.41s-.3,1.49-.44,2.23C169.72,198.82,170,199.07,170.54,199Z"/><path class="site-logo-cls-6" d="M152.77,198.35c0,1.72,0,3.43,0,5.15,0,.71-.22,1-1,1s-.88-.35-.88-1c0-3.43,0-6.87,0-10.3,0-.56.05-1,.81-1s1,.26,1,1c-.05,1.71.07,2.35.07,4.07C152.79,197.27,152.74,198.35,152.77,198.35Z"/><path class="site-logo-cls-6" d="M94.46,199c.26,1.66.48,3.2.76,4.73.11.61.07,1-.66,1.11s-.93-.15-1-.83c-.52-3.31-1.09-6.61-1.61-9.92-.07-.47-.42-1.12.46-1.36s1.11-.11,1.58.79c.76,1.46,1.51,2.91,2.28,4.35a3.91,3.91,0,0,0,.5.59,5.58,5.58,0,0,0,0-.71c-.24-1.57-.48-3.15-.74-4.72-.11-.65.11-1,.77-1.06s.81.32.89.86c.34,2.08.71,4.16,1.06,6.25.22,1.3.42,2.6.61,3.9.07.45.33,1-.42,1.13s-1.17.24-1.53-.5c-.56-1.19-1.18-2.35-1.78-3.52-.2-.39-.4-.78-.62-1.16a2.93,2.93,0,0,0-.37-.42C94.54,198.72,94.49,198.92,94.46,199Z"/><path class="site-logo-cls-3" d="M106.79,195.18c0-.52,0-1,0-1.56,0-.69.36-.85.92-.52,1.15.69,1.17,3.45,0,4.11-.58.34-.89.19-.94-.48,0-.52,0-1,0-1.55Z"/><path class="site-logo-cls-6" d="M141.05,194.35c0-.28,0-.56,0-.83,0-.49.17-.78.66-.83l3.1-.27c.43,0,.69.13.7.6s0,.82-.54.89c-.2,0-.39.07-.59.08-1.52.1-1.51,0-1.4,1.76,0,.16,0,.31.05.47.16,1.41.17,1.41,1.63,1.3a1.69,1.69,0,0,1,1.11.16c.46.39.08,1.14-.59,1.26-1.88.35-1.89.35-1.77,2.26.06.92.14,1.83.24,2.75.06.63-.14,1-.84,1s-.89-.29-.94-.92c-.25-3.23-.52-6.45-.79-9.68Z"/><path class="site-logo-cls-6" d="M186.78,211.66a6,6,0,0,1,1.2-3,15.38,15.38,0,0,1,4.23-5.39,2.61,2.61,0,0,1,3.32.13,2.33,2.33,0,0,1,1,2.42,10.83,10.83,0,0,1-1.16,3.09A28.36,28.36,0,0,1,192,213.4c-1.34,1.42-2.94,1.42-4.12.19C187.4,213.08,186.56,212.77,186.78,211.66Zm2-.15c0,1,.61,1.41,1.35,1.07A2.65,2.65,0,0,0,191,212a20.4,20.4,0,0,0,3.55-5.53c.25-.58.51-1.27-.17-1.75s-.94-.12-1.43.26a4.4,4.4,0,0,0-.6.62c-1.09,1.67-2.17,3.27-3.22,5A3.42,3.42,0,0,0,188.8,211.51Z"/><path class="site-logo-cls-3" d="M191.63,224.27c-.63,1.14-4.54,1.38-8.5-.78s-6.28-5.05-5.31-6.72,4.84-1.32,8.75.94S192.51,222.71,191.63,224.27Z"/><path class="site-logo-cls-3" d="M171.73,218.83c.4,1-3.23,4-7.57,5.22-3.53,1-8.18,1.52-8.68-.34s2.56-4.19,6.9-5.41C166.07,217.27,171,217.16,171.73,218.83Z"/><path class="site-logo-cls-3" d="M124.57,214.55c-.39,2-3.27,3-8,2.35s-7.59-3.25-7.4-5c.15-1.35,3.85-2.8,8.53-2S124.82,213.24,124.57,214.55Z"/><path class="site-logo-cls-3" d="M82.63,217.33c.47,1.32-.9,4.66-5.15,6.78s-8.27,2.42-9.13.85c-.65-1.19,1-4.31,5.6-6.81C77.08,216.43,82.18,216.07,82.63,217.33Z"/><path class="site-logo-cls-3" d="M150.26,212.08c.08,1.3-3.44,4-8.21,4.39-4.54.39-8-.53-8.2-2.46s3.7-4.28,8.19-4.68S150.13,210.21,150.26,212.08Z"/><path class="site-logo-cls-3" d="M109.16,223.46c-.32,1.26-5.53,1.9-9.75,1-4.45-1-8.5-2.86-8-4.25.71-1.88,5.86-2.36,10.21-1.19S109.61,221.72,109.16,223.46Z"/></g></g></svg>